<?xml version="1.0" standalone="no"?>
<!DOCTYPE svg PUBLIC "-//W3C//DTD SVG 20010904//EN"
 "http://www.w3.org/TR/2001/REC-SVG-20010904/DTD/svg10.dtd">
<svg version="1.0" xmlns="http://www.w3.org/2000/svg"
 width="512.000000pt" height="512.000000pt" viewBox="0 0 512.000000 512.000000"
 preserveAspectRatio="xMidYMid meet">
<metadata>
Created by potrace 1.14, written by Peter Selinger 2001-2017
</metadata>
<g transform="translate(0.000000,512.000000) scale(0.100000,-0.100000)"
fill="#000000" stroke="none">
<path d="M1820 4850 c-36 -9 -80 -23 -99 -31 l-34 -15 39 -25 c31 -21 44 -24
64 -17 14 5 33 7 42 4 10 -2 18 0 18 5 0 5 7 9 16 9 8 0 12 5 9 10 -3 6 -2 10
3 10 12 0 23 52 14 62 -4 3 -36 -2 -72 -12z m60 -10 c0 -5 -5 -10 -11 -10 -5
0 -7 5 -4 10 3 6 8 10 11 10 2 0 4 -4 4 -10z"/>
<path d="M114 4641 c3 -5 -1 -14 -9 -21 -12 -10 -15 -10 -16 1 0 8 -5 3 -11
-11 -9 -20 -12 -21 -15 -8 -2 9 -17 21 -34 27 l-29 10 0 -565 c0 -483 2 -564
14 -564 8 0 16 12 18 28 l4 27 12 -27 c6 -16 19 -28 28 -28 13 0 15 9 12 50
-1 28 0 50 5 50 4 0 7 -22 7 -50 0 -27 3 -50 8 -50 30 1 31 19 27 465 -2 248
-4 501 -4 563 -1 72 -5 112 -12 112 -5 0 -8 -4 -5 -9z m-60 -122 c-3 -5 -10
-7 -15 -3 -5 3 -7 10 -3 15 3 5 10 7 15 3 5 -3 7 -10 3 -15z m66 -14 c0 -1 -7
-8 -15 -15 -13 -10 -15 -9 -15 8 0 15 5 20 15 16 8 -4 15 -7 15 -9z m-57 -155
c-6 -7 -23 23 -23 40 0 8 6 4 13 -10 8 -14 12 -27 10 -30z m52 20 c3 -5 -1
-10 -9 -10 -9 0 -16 5 -16 10 0 6 4 10 9 10 6 0 13 -4 16 -10z m2 -56 c-3 -3
-12 -4 -19 -1 -8 3 -5 6 6 6 11 1 17 -2 13 -5z m-65 -129 c-3 -21 -9 -34 -16
-32 -6 2 -9 13 -8 23 2 10 4 29 4 42 0 17 3 20 12 13 7 -6 10 -25 8 -46z m53
-86 c0 -71 -3 -129 -7 -129 -5 0 -8 62 -8 137 0 75 3 133 7 129 4 -4 8 -65 8
-137z m-35 -34 c0 -9 -6 -12 -15 -9 -8 4 -15 10 -15 15 0 5 7 9 15 9 8 0 15
-7 15 -15z m-21 -42 c0 -10 -4 -27 -9 -38 -7 -16 -9 -13 -9 18 -1 20 4 37 9
37 6 0 10 -8 9 -17z m58 -93 c-4 -16 -3 -31 1 -34 4 -3 5 -42 1 -88 -5 -53 -4
-87 3 -95 7 -9 7 -17 0 -25 -5 -7 -12 -24 -15 -38 -5 -29 -7 26 -8 185 0 135
-1 125 12 125 7 0 9 -11 6 -30z m-57 -11 c0 -10 -4 -19 -10 -19 -5 0 -10 12
-10 26 0 14 4 23 10 19 6 -3 10 -15 10 -26z m2 -89 c1 -16 2 -40 2 -52 1 -13
6 -26 11 -30 6 -4 2 -8 -7 -8 -10 0 -18 -3 -18 -6 0 -4 8 -13 18 -21 16 -14
16 -14 0 -9 -19 6 -26 -19 -8 -26 11 -4 22 -76 14 -90 -4 -5 -13 3 -20 18 -12
22 -12 29 -2 36 10 6 10 8 1 8 -10 0 -13 28 -13 105 0 63 4 105 10 105 6 0 11
-13 12 -30z"/>
<path d="M2508 4600 c2 -16 6 -30 8 -30 2 0 4 14 4 30 0 17 -4 30 -8 30 -5 0
-7 -13 -4 -30z"/>
<path d="M177 4587 c-4 -10 -7 -201 -7 -423 0 -316 3 -404 13 -404 9 0 12 30
11 122 -1 68 0 111 3 96 2 -16 11 -28 19 -28 8 0 14 -4 14 -10 0 -5 -6 -10
-12 -10 -9 0 -14 -19 -15 -55 -2 -48 0 -55 18 -55 18 0 19 8 19 120 0 114 -1
120 -20 120 -17 0 -19 -5 -14 -25 4 -15 2 -25 -5 -25 -6 0 -11 19 -11 45 0 43
1 45 25 41 l25 -5 0 250 c0 217 -2 249 -15 249 -9 0 -19 -8 -22 -17 -6 -15 -8
-14 -13 7 -5 22 -7 23 -13 7z m29 -102 c-2 -7 0 -17 6 -23 11 -11 3 -32 -13
-32 -5 0 -9 18 -9 41 0 26 4 38 11 34 6 -4 8 -13 5 -20z m10 -105 c8 0 14 -7
14 -15 0 -13 -4 -14 -20 -5 -11 6 -20 18 -19 28 0 10 3 12 6 5 2 -7 11 -13 19
-13z m-6 -50 c9 -16 7 -24 -5 -36 -13 -14 -15 -12 -15 20 0 41 5 45 20 16z m4
-96 c9 -3 16 -12 16 -20 0 -7 -6 -11 -13 -8 -10 3 -13 -3 -9 -24 2 -16 -1 -33
-7 -36 -7 -5 -11 9 -11 43 0 28 2 51 4 51 2 0 11 -3 20 -6z"/>
<path d="M1060 4570 c-21 -5 -1 -6 50 -3 47 3 87 7 89 9 8 7 -103 2 -139 -6z"/>
<path d="M923 4562 c-24 -2 -43 -6 -43 -10 0 -9 92 -2 103 7 4 4 2 7 -5 7 -7
-1 -32 -2 -55 -4z"/>
<path d="M1000 4560 c0 -5 5 -10 10 -10 6 0 10 5 10 10 0 6 -4 10 -10 10 -5 0
-10 -4 -10 -10z"/>
<path d="M2505 4550 c-3 -5 -1 -10 4 -10 6 0 11 5 11 10 0 6 -2 10 -4 10 -3 0
-8 -4 -11 -10z"/>
<path d="M1080 4541 c0 -5 21 -6 48 -4 70 7 74 11 10 12 -32 1 -58 -3 -58 -8z"/>
<path d="M990 4530 c0 -5 7 -10 15 -10 8 0 15 5 15 10 0 6 -7 10 -15 10 -8 0
-15 -4 -15 -10z"/>
<path d="M928 4523 c7 -3 16 -2 19 1 4 3 -2 6 -13 5 -11 0 -14 -3 -6 -6z"/>
<path d="M1138 4523 c12 -2 30 -2 40 0 9 3 -1 5 -23 4 -22 0 -30 -2 -17 -4z"/>
<path d="M2212 4494 l-24 -23 24 6 c18 4 20 2 8 -6 -8 -5 -11 -13 -7 -17 9 -9
47 30 47 49 0 20 -22 16 -48 -9z"/>
<path d="M990 4498 c0 -4 10 -14 22 -22 22 -16 43 -12 32 6 -4 6 7 9 27 8 65
-4 122 0 115 8 -10 9 -196 9 -196 0z"/>
<path d="M2483 4500 c-33 -13 -28 -24 7 -17 28 6 51 -6 30 -16 -6 -3 -5 -4 2
-3 18 4 16 40 -2 43 -8 1 -25 -2 -37 -7z"/>
<path d="M928 4493 c6 -2 18 -2 25 0 6 3 1 5 -13 5 -14 0 -19 -2 -12 -5z"/>
<path d="M1060 4468 c0 -5 5 -6 10 -3 6 4 16 2 23 -3 8 -7 18 -6 30 2 15 12
12 13 -23 13 -22 0 -40 -4 -40 -9z"/>
<path d="M935 4460 c-3 -5 -2 -10 4 -10 5 0 13 5 16 10 3 6 2 10 -4 10 -5 0
-13 -4 -16 -10z"/>
<path d="M2465 4460 c-3 -5 -1 -10 4 -10 6 0 11 5 11 10 0 6 -2 10 -4 10 -3 0
-8 -4 -11 -10z"/>
<path d="M2490 4451 c0 -5 -10 -11 -22 -14 -13 -4 -31 -12 -42 -20 -16 -11 -7
-13 63 -9 45 2 81 0 81 -5 0 -4 -33 -9 -73 -11 -80 -3 -110 -9 -102 -21 2 -5
-18 -20 -45 -35 l-50 -27 0 -230 c0 -126 2 -229 4 -229 3 0 16 4 30 10 14 5
26 7 26 4 0 -3 -13 -10 -30 -15 l-30 -11 2 -136 c1 -76 3 -114 5 -85 3 42 8
53 25 59 13 4 24 1 29 -7 14 -22 11 -28 -13 -21 -14 3 -19 2 -14 -6 4 -7 13
-12 21 -12 19 0 25 -53 28 -270 2 -152 4 -184 16 -182 11 2 10 -3 -3 -23 -24
-36 -18 -112 12 -149 l22 -28 1 183 c1 101 1 208 1 237 1 42 4 52 17 52 9 0
23 -6 30 -12 11 -11 13 -10 9 2 -3 8 -17 16 -32 18 -20 3 -26 8 -22 19 3 8 7
40 7 71 1 51 2 53 9 22 4 -19 8 -28 9 -20 1 9 4 11 9 5 4 -5 14 -9 22 -9 8 1
20 2 27 3 7 1 14 21 16 49 2 26 5 -14 7 -88 l4 -135 7 180 c8 201 9 205 22
205 5 0 4 7 -3 15 -10 12 -10 15 1 15 11 0 11 2 -1 10 -8 5 -10 10 -5 10 6 0
11 9 11 20 0 11 -5 20 -11 20 -6 0 -7 3 0 8 6 4 10 14 10 22 0 8 -4 18 -10 22
-5 4 -1 8 10 8 14 0 16 3 7 9 -18 11 -11 35 13 43 16 5 15 6 -9 7 -21 1 -26 4
-19 14 5 6 9 21 9 32 -1 15 7 21 34 26 l35 6 -37 2 c-41 1 -53 20 -15 22 17 1
16 3 -8 8 -29 7 -29 7 15 16 l45 8 -40 7 -40 7 40 3 40 3 -40 7 c-39 6 -36 13
10 23 16 4 15 5 -5 6 -14 1 -32 6 -40 11 -11 7 -3 10 30 11 44 1 44 1 12 9
-48 11 -51 20 -6 21 l39 2 -35 7 c-31 6 -32 8 -8 9 37 1 46 21 11 22 l-28 1
30 8 c23 6 25 8 8 9 -33 2 -38 21 -6 22 26 2 25 2 -7 9 l-35 7 33 2 c29 1 32
4 32 34 0 24 -6 35 -22 42 -13 6 -22 16 -21 22 1 6 -9 14 -22 17 -15 4 -25 14
-25 24 0 14 -2 15 -10 2 -8 -12 -13 -13 -30 -2 -11 7 -20 8 -20 3z m-135 -539
c-3 -3 -11 0 -18 7 -9 10 -8 11 6 5 10 -3 15 -9 12 -12z m-9 -16 c34 9 30 -2
-6 -15 -29 -9 -30 -9 -29 17 1 17 3 20 6 9 3 -12 11 -15 29 -11z m177 -53 c-7
-2 -21 -2 -30 0 -10 3 -4 5 12 5 17 0 24 -2 18 -5z m-173 -13 c-13 -8 -12 -10
4 -10 20 0 20 0 0 -15 -19 -14 -19 -14 1 -15 16 -1 14 -4 -10 -15 l-30 -14 30
-1 c31 0 25 -14 -10 -24 -12 -3 -8 -4 8 -2 34 4 31 -15 -4 -26 -23 -7 -22 -7
4 -4 15 2 27 -1 27 -5 0 -5 -6 -9 -14 -9 -8 0 -21 -3 -30 -6 -14 -5 -16 5 -16
68 0 81 3 88 34 88 17 0 18 -2 6 -10z m160 -50 c0 -5 -7 -10 -15 -10 -8 0 -15
5 -15 10 0 6 7 10 15 10 8 0 15 -4 15 -10z m17 -10 c-3 -10 0 -21 7 -24 6 -2
-4 -5 -21 -5 -18 -1 -33 4 -33 9 0 6 9 10 20 10 11 0 20 7 20 15 0 8 3 15 6
15 4 0 4 -9 1 -20z m3 -44 c0 -11 -19 -15 -25 -6 -3 5 1 10 9 10 9 0 16 -2 16
-4z m-44 -111 c14 -13 14 -15 1 -15 -9 0 -18 -6 -20 -12 -3 -7 -6 -1 -6 15 -1
31 4 33 25 12z m-71 -364 c3 -5 1 -12 -5 -16 -5 -3 -10 1 -10 9 0 18 6 21 15
7z"/>
<path d="M935 4430 c3 -5 12 -7 20 -3 21 7 19 13 -6 13 -11 0 -18 -4 -14 -10z"/>
<path d="M998 4433 c7 -3 16 -2 19 1 4 3 -2 6 -13 5 -11 0 -14 -3 -6 -6z"/>
<path d="M1138 4433 c12 -2 32 -2 45 0 12 2 2 4 -23 4 -25 0 -35 -2 -22 -4z"/>
<path d="M2128 4403 c-10 -2 -18 -9 -18 -15 0 -5 -7 -8 -15 -5 -8 4 -17 2 -19
-2 -3 -5 -19 -11 -35 -14 -17 -4 -35 -16 -42 -28 -10 -20 -9 -21 7 -14 11 4
47 15 81 24 54 14 63 19 63 39 0 12 -1 21 -2 21 -2 -1 -11 -3 -20 -6z"/>
<path d="M1173 4373 c-18 -7 -16 -20 2 -20 8 0 15 6 15 14 0 7 -1 13 -2 12 -2
0 -9 -3 -15 -6z"/>
<path d="M3282 4315 c0 -16 2 -22 5 -12 2 9 2 23 0 30 -3 6 -5 -1 -5 -18z"/>
<path d="M2053 4323 c-7 -2 -13 -9 -13 -14 0 -14 30 -11 46 6 14 13 13 15 -3
14 -10 0 -24 -3 -30 -6z"/>
<path d="M3285 4252 c-6 -5 -48 -21 -95 -37 -47 -15 -91 -33 -98 -38 -10 -8
-11 -43 -6 -156 4 -80 9 -148 11 -151 3 -3 10 3 17 13 8 10 26 17 44 17 17 0
32 4 34 9 2 5 14 4 28 -2 25 -10 25 -10 3 -14 -15 -3 -23 -12 -23 -24 0 -20
15 -26 25 -9 3 6 17 7 31 4 14 -4 24 -2 24 5 0 6 -4 11 -10 11 -5 0 -10 5 -10
11 0 5 5 7 11 3 8 -5 10 1 7 20 -3 14 -1 26 3 26 5 0 9 8 9 18 1 16 1 16 11
-1 5 -9 14 -77 18 -150 7 -119 11 -123 15 -14 0 21 7 42 16 47 12 8 12 10 -5
10 -18 1 -19 1 -2 11 9 5 17 21 17 34 0 14 5 25 11 25 5 0 7 -5 3 -12 -4 -7
-3 -8 4 -4 13 8 17 167 5 165 -5 -1 -25 -1 -45 0 l-38 1 0 86 c0 65 3 83 13
78 8 -5 8 -2 -2 9 -16 20 -14 19 -26 9z m-5 -42 c0 -5 -5 -10 -11 -10 -5 0 -7
5 -4 10 3 6 8 10 11 10 2 0 4 -4 4 -10z m-120 -59 c0 -11 -49 -21 -55 -10 -3
4 3 10 12 12 30 8 43 7 43 -2z m110 -21 c0 -5 -5 -10 -11 -10 -5 0 -7 5 -4 10
3 6 8 10 11 10 2 0 4 -4 4 -10z m-95 -20 c-3 -5 -11 -10 -16 -10 -6 0 -7 5 -4
10 3 6 11 10 16 10 6 0 7 -4 4 -10z m-55 -10 c0 -5 -4 -10 -10 -10 -5 0 -10 5
-10 10 0 6 5 10 10 10 6 0 10 -4 10 -10z m164 -25 c-6 -16 -65 -26 -78 -14 -6
6 -5 9 2 10 7 1 17 3 22 4 6 1 15 3 20 4 6 0 9 4 9 9 -3 19 2 23 15 12 8 -6
13 -17 10 -25z m20 -24 c6 -9 -35 -24 -43 -15 -6 5 18 24 31 24 4 0 9 -4 12
-9z m6 -30 c0 -6 -4 -13 -10 -16 -5 -3 -10 1 -10 9 0 9 5 16 10 16 6 0 10 -4
10 -9z m70 -15 c0 -3 -4 -8 -10 -11 -5 -3 -10 -1 -10 4 0 6 5 11 10 11 6 0 10
-2 10 -4z m-100 -31 c0 -8 -2 -15 -4 -15 -2 0 -6 7 -10 15 -3 8 -1 15 4 15 6
0 10 -7 10 -15z m100 -31 c0 -8 -5 -12 -10 -9 -6 4 -8 11 -5 16 9 14 15 11 15
-7z m-248 -12 c3 -11 0 -19 -7 -19 -7 0 -10 8 -7 19 2 10 6 18 7 18 1 0 5 -8
7 -18z m118 8 c-19 -13 -30 -13 -30 0 0 6 10 10 23 10 18 0 19 -2 7 -10z"/>
<path d="M3340 4168 c0 -50 2 -89 4 -87 9 10 14 179 6 179 -6 0 -10 -40 -10
-92z"/>
<path d="M3370 4235 c0 -8 5 -15 10 -15 6 0 10 7 10 15 0 8 -4 15 -10 15 -5 0
-10 -7 -10 -15z"/>
<path d="M311 3976 l-1 -188 48 7 c26 3 64 11 84 17 28 8 41 8 52 -1 29 -24
36 -1 36 108 0 125 4 118 -110 180 -66 36 -120 57 -80 31 11 -7 11 -10 2 -10
-7 0 -17 10 -22 23 -6 14 -9 -44 -9 -167z"/>
<path d="M3383 4120 c0 -25 2 -35 4 -22 2 12 2 32 0 45 -2 12 -4 2 -4 -23z"/>
<path d="M1020 4030 c0 -5 5 -10 11 -10 5 0 7 5 4 10 -3 6 -8 10 -11 10 -2 0
-4 -4 -4 -10z"/>
<path d="M1530 4016 c0 -17 -4 -25 -11 -21 -7 5 -10 -23 -9 -87 2 -146 1 -168
-10 -168 -5 0 -10 6 -10 13 0 7 -9 18 -20 24 -16 11 -21 10 -28 -3 -8 -14 -10
-14 -15 -1 -4 10 -13 13 -26 10 -24 -6 -23 -3 -27 -68 -1 -27 -3 -52 -4 -55
-5 -12 3 -66 10 -75 5 -5 9 -13 9 -17 1 -5 4 -7 9 -5 4 1 6 5 4 10 -1 4 11 7
27 7 20 0 31 -6 34 -17 2 -10 3 -6 2 10 -1 15 2 27 7 27 4 0 8 -13 8 -30 0
-21 5 -30 16 -30 20 0 8 -19 -20 -29 -15 -6 -28 -3 -45 10 -13 11 -35 19 -50
18 -23 0 -24 -1 -6 -9 17 -7 18 -9 2 -9 -18 -1 -17 -25 5 -83 9 -26 35 -44 46
-33 3 3 1 5 -5 5 -6 0 -13 7 -17 15 -4 12 -2 13 15 2 11 -6 23 -23 26 -37 3
-14 13 -30 22 -37 19 -14 22 -73 4 -90 -17 -18 -22 -16 -34 14 -7 19 -6 29 2
37 9 8 10 7 4 -4 -6 -11 -5 -12 4 -4 17 15 4 39 -37 70 -23 17 -31 20 -21 8
12 -13 14 -25 8 -41 -10 -27 -17 -28 -43 -8 -27 20 -41 19 -21 -1 22 -23 14
-27 -49 -25 -58 1 -75 -14 -60 -53 6 -14 2 -16 -22 -11 -16 4 -34 8 -41 10 -7
2 -25 -2 -40 -10 -15 -8 -37 -15 -47 -15 -15 0 -11 -9 22 -42 23 -23 42 -48
42 -55 0 -7 6 -13 13 -13 8 0 7 -3 -3 -10 -23 -15 -5 -22 23 -9 15 7 24 17 20
23 -3 6 0 5 8 -1 7 -7 25 -13 40 -13 18 0 28 -6 32 -20 3 -11 1 -20 -4 -20 -5
0 -9 -7 -9 -15 0 -8 -4 -15 -9 -15 -4 0 -11 -24 -15 -54 -3 -30 -8 -60 -11
-68 -6 -14 42 -39 84 -43 13 -1 30 -10 38 -20 16 -23 18 -59 1 -49 -7 5 -8 3
-3 -6 4 -7 2 -16 -6 -21 -23 -14 -31 -10 -24 11 9 29 -10 25 -33 -7 l-19 -26
4 30 c4 27 2 30 -19 29 -23 -1 -27 -15 -13 -48 4 -11 3 -18 -4 -18 -7 0 -15 9
-19 20 -7 19 -8 19 -19 1 -10 -17 -9 -20 13 -25 13 -4 24 -11 24 -16 0 -14
-43 -2 -52 15 -5 8 -15 15 -23 15 -8 0 -17 5 -21 11 -4 8 0 9 15 4 12 -4 21
-2 21 4 0 6 -9 11 -21 11 -11 0 -17 5 -14 10 3 6 -4 10 -17 9 -13 0 -17 -3
-11 -6 24 -9 -14 -33 -51 -33 -31 0 -39 -6 -60 -39 -28 -44 -42 -56 -50 -42
-4 5 -2 12 4 16 5 3 10 16 10 28 0 16 -3 18 -12 9 -14 -14 -37 -15 -56 -4 -10
7 -9 16 3 46 9 20 13 42 9 48 -5 8 -1 9 12 5 18 -7 18 -6 2 7 -23 17 -23 26 1
26 26 0 51 10 51 21 0 5 -11 3 -25 -3 -26 -12 -49 -3 -26 11 10 6 9 10 -4 15
-9 3 -13 11 -9 17 4 7 8 24 10 38 2 23 1 24 -10 9 -7 -10 -17 -18 -21 -18 -14
0 -55 -55 -55 -73 0 -15 -3 -16 -20 -7 -11 6 -20 15 -20 20 0 6 9 10 20 10 11
0 20 5 20 11 0 17 -112 4 -125 -15 -6 -8 -33 -16 -62 -18 -30 -2 -57 -11 -67
-21 -10 -9 -21 -15 -26 -12 -4 3 -13 -9 -19 -26 -9 -27 -31 -33 -31 -8 0 20
-30 40 -63 42 -30 2 -32 4 -29 35 3 18 0 32 -7 32 -6 0 -8 7 -4 16 5 13 7 13
14 2 12 -18 11 -5 -1 26 -8 23 -7 26 10 26 15 0 20 7 20 28 0 41 33 72 78 73
80 1 195 9 200 14 3 3 -10 5 -28 5 l-33 0 29 27 c16 15 31 28 34 29 3 1 15 5
28 9 l23 8 -22 23 c-18 19 -19 24 -7 24 9 0 18 -6 21 -14 4 -10 14 -12 29 -8
l23 6 -25 6 c-14 3 -30 16 -36 28 -6 12 -14 19 -17 15 -4 -3 -7 -2 -7 4 0 6
-15 14 -32 18 -45 10 -170 5 -185 -7 -9 -7 -13 -7 -13 2 0 7 -9 3 -19 -9 -11
-13 -24 -20 -29 -17 -5 3 -19 -7 -31 -23 -14 -18 -39 -34 -67 -41 -40 -11 -44
-16 -44 -43 l0 -30 25 27 c27 30 40 34 31 10 -6 -17 9 -44 25 -44 5 0 9 7 9
16 0 10 7 14 23 12 34 -5 26 -29 -18 -53 -38 -22 -57 -45 -37 -45 15 0 25 -57
13 -77 -8 -16 -10 -15 -16 10 -6 21 -13 27 -34 27 -34 0 -93 -52 -85 -74 8
-20 2 -20 -111 -1 -50 8 -100 15 -113 15 l-22 0 2 -217 c2 -173 6 -221 17
-233 13 -13 12 -15 -2 -18 -15 -3 -17 -18 -17 -104 0 -99 0 -100 34 -141 33
-40 34 -43 19 -70 -10 -20 -20 -27 -32 -24 -14 3 -18 -2 -19 -24 l-1 -29 88 0
c80 0 89 2 111 25 l23 25 -36 0 c-20 0 -60 -9 -89 -20 -57 -21 -71 -21 -36 2
65 42 116 52 267 50 188 -2 181 -1 175 -15 -2 -7 6 -12 21 -12 19 0 25 5 25
23 0 23 30 33 30 10 0 -7 5 -5 11 5 5 9 16 17 24 17 7 0 16 6 18 13 3 7 6 5 6
-5 1 -14 10 -18 41 -18 33 0 40 -3 40 -19 0 -11 5 -23 12 -27 8 -5 10 4 6 34
-3 22 -3 43 0 47 11 11 11 40 -1 47 -9 5 -7 12 6 25 18 17 19 16 15 -44 -2
-37 1 -63 7 -63 6 0 11 5 11 10 1 6 2 11 3 13 2 1 5 13 7 27 3 13 9 29 14 34
12 12 24 -37 15 -65 -7 -20 -5 -21 26 -15 19 3 40 7 47 8 6 1 12 7 12 14 0 8
6 11 16 7 9 -3 19 -2 23 4 3 5 17 6 31 2 24 -7 24 -7 3 -8 -14 -1 -23 -7 -23
-18 0 -9 -7 -24 -16 -34 -23 -25 -12 -35 46 -43 45 -6 50 -9 50 -32 0 -13 -6
-26 -12 -29 -25 -7 -137 -11 -132 -4 2 4 1 14 -2 23 -4 12 -20 16 -56 16 -27
0 -47 4 -44 9 6 9 -43 9 -59 0 -5 -4 -30 -6 -54 -5 -32 1 -47 -4 -55 -16 -6
-10 -16 -18 -23 -18 -27 0 -13 -40 20 -56 17 -9 36 -23 40 -30 4 -8 19 -14 32
-14 16 0 25 -6 25 -15 0 -12 16 -15 87 -15 101 0 100 -9 -4 -39 -40 -12 -75
-26 -78 -31 -3 -6 -2 -10 3 -10 5 0 7 -13 4 -30 l-4 -30 113 0 c123 0 170 7
147 21 -9 6 -6 9 10 9 16 0 21 4 16 13 -5 8 -4 9 4 2 5 -5 12 -21 14 -35 l3
-25 -152 -3 -152 -3 -15 -32 c-7 -17 -16 -40 -19 -49 -5 -14 -12 -15 -38 -8
-37 11 -49 20 -26 20 9 0 17 4 17 9 0 5 9 11 19 14 23 6 39 66 21 77 -6 4 -13
16 -14 26 -2 12 -10 18 -20 16 -10 -2 -24 2 -32 9 -11 9 -18 9 -25 2 -8 -8 -6
-11 7 -10 14 2 18 -4 17 -20 -2 -13 2 -23 8 -23 5 0 7 -5 3 -11 -4 -8 -9 -7
-15 2 -6 10 -9 11 -9 2 0 -7 -5 -13 -10 -13 -7 0 -7 6 -1 19 9 16 7 20 -14 25
-30 8 -30 12 -5 54 14 23 27 32 47 33 16 0 22 3 15 6 -28 11 -64 -9 -91 -52
-16 -24 -31 -42 -35 -38 -3 3 -6 2 -6 -4 0 -5 -7 -10 -15 -10 -11 0 -12 4 -4
14 6 7 8 20 5 29 -6 15 -4 15 10 3 16 -13 16 -12 7 6 -10 17 -7 22 13 32 22
10 23 10 13 -11 -8 -16 -4 -15 15 7 29 31 43 74 30 87 -13 12 -76 -3 -85 -20
-5 -8 -20 -41 -33 -72 -29 -67 -56 -87 -140 -105 l-61 -12 70 5 c50 4 67 3 60
-5 -12 -12 -133 -31 -153 -23 -7 2 -24 26 -37 53 -24 46 -45 70 -45 51 0 -5 8
-20 18 -33 43 -57 50 -99 28 -161 -12 -34 -11 -40 10 -37 4 0 10 -3 13 -8 3
-4 24 -20 46 -34 29 -19 40 -33 40 -52 0 -14 -4 -23 -8 -20 -5 3 -20 -6 -34
-18 -22 -22 -35 -24 -144 -27 l-119 -4 0 -44 c0 -24 1 -44 3 -44 1 0 55 20
120 44 64 24 117 41 117 38 0 -4 -54 -27 -120 -51 -95 -34 -120 -48 -120 -62
0 -11 2 -19 5 -19 3 0 56 21 117 47 85 36 113 43 116 33 3 -8 15 -24 27 -36
19 -18 20 -24 8 -40 -7 -10 -13 -35 -13 -57 0 -30 -3 -38 -15 -33 -8 3 -19 -2
-24 -11 -8 -15 -11 -15 -26 -3 -24 20 -51 22 -65 5 -10 -12 -10 -18 1 -32 11
-13 11 -17 1 -21 -7 -2 -19 -10 -27 -18 -8 -9 -34 -21 -57 -28 l-43 -12 -3
-98 -3 -98 153 8 c84 4 160 7 168 6 8 -1 516 -1 1128 -2 980 0 1112 -2 1112
-15 0 -13 -151 -15 -1280 -15 -847 0 -1280 -3 -1280 -10 0 -7 433 -10 1280
-10 1112 0 1280 -2 1280 -15 0 -7 5 -37 11 -65 8 -39 15 -50 30 -50 22 0 28
20 31 109 3 60 5 64 28 68 32 5 70 -4 70 -17 0 -6 -18 -10 -40 -10 -22 0 -40
-4 -40 -10 0 -5 20 -10 44 -10 l43 0 7 -61 c4 -35 13 -62 20 -65 8 -3 12 -15
10 -27 -3 -13 2 -9 11 11 18 38 21 101 10 195 -5 45 -4 67 3 67 6 0 12 -16 14
-36 l3 -35 423 0 c359 0 424 2 437 14 8 9 20 17 27 20 8 2 9 8 4 13 -5 5 -11
4 -13 -3 -5 -15 -33 -18 -33 -4 0 13 29 35 37 28 3 -4 12 -2 20 5 7 6 17 7 21
3 4 -4 1 -10 -6 -12 -10 -4 -10 -8 -1 -19 9 -11 9 -14 0 -14 -7 0 -9 -5 -5
-11 4 -7 0 -9 -14 -5 -11 4 -23 2 -26 -3 -4 -6 43 -10 124 -10 82 0 129 3 125
9 -3 6 -3 10 1 10 8 0 33 -32 34 -42 0 -4 -259 -7 -575 -5 -455 1 -575 -1
-575 -10 0 -10 124 -13 588 -13 l589 0 64 -76 c43 -51 63 -82 61 -97 -1 -17 6
-26 30 -35 l33 -13 -28 -17 c-20 -12 -27 -24 -25 -42 3 -22 0 -25 -24 -22 -38
5 -70 -15 -63 -38 4 -14 -2 -21 -30 -30 -19 -6 -35 -15 -35 -19 0 -4 -11 -14
-25 -21 -14 -7 -25 -19 -25 -25 0 -7 -12 -17 -26 -24 -15 -6 -35 -22 -45 -35
-10 -13 -32 -29 -49 -36 -28 -11 -30 -16 -24 -46 6 -33 5 -34 -26 -34 -24 0
-31 -4 -27 -15 6 -13 -2 -21 -82 -82 -18 -15 -43 -23 -67 -23 -34 0 -36 -1
-20 -13 17 -12 15 -16 -21 -45 -21 -17 -46 -38 -55 -46 -15 -14 -19 -10 -37
37 -24 62 -27 52 -6 -17 8 -27 14 -50 13 -52 -2 -1 -19 -7 -38 -12 -26 -8 33
-10 221 -11 230 -1 258 1 263 16 6 14 8 14 20 -3 22 -29 30 -9 9 22 -16 25
-16 27 -1 22 13 -5 15 -3 11 9 -5 12 -2 15 10 10 10 -4 14 -2 11 6 -6 18 54
51 104 58 l43 5 30 -54 c17 -29 33 -51 35 -49 2 2 -7 25 -22 50 -14 26 -23 51
-19 57 3 5 0 10 -7 10 -7 0 0 7 16 15 16 9 46 31 66 49 53 48 79 54 102 25 11
-13 16 -17 12 -9 -4 8 -16 25 -27 37 -18 20 -19 23 -3 23 9 0 19 6 22 14 3 8
19 20 35 26 16 7 29 18 29 24 0 21 48 56 76 57 25 0 26 2 9 8 -18 7 -18 9 10
24 36 18 65 51 83 91 l12 29 20 -21 c11 -12 20 -28 20 -36 0 -22 28 -33 75
-31 22 1 47 -5 56 -12 15 -12 16 -11 12 12 -3 15 -1 25 6 25 7 0 10 4 7 9 -9
14 52 61 79 61 15 0 26 7 30 19 3 11 26 29 50 41 40 19 46 20 79 6 20 -8 36
-17 36 -20 0 -3 -28 -13 -62 -23 -35 -9 -55 -19 -45 -21 26 -5 20 -22 -8 -22
-14 0 -25 -4 -25 -10 0 -5 6 -10 14 -10 8 0 17 -4 20 -9 4 -5 -4 -7 -16 -4
-23 5 -23 4 2 -15 l24 -20 -42 -46 c-23 -25 -42 -50 -42 -56 0 -5 -7 -18 -16
-29 -18 -20 -63 -144 -64 -173 0 -9 -8 -21 -17 -27 -10 -5 -15 -12 -11 -16 3
-4 0 -25 -8 -47 -12 -35 -12 -42 1 -54 8 -9 23 -14 32 -13 10 2 29 -1 43 -6
24 -7 24 -8 5 -16 -11 -4 36 -8 109 -8 71 -1 127 2 123 5 -3 3 3 15 13 26 48
52 50 67 50 399 l0 313 -27 28 -27 28 27 0 c26 0 27 2 27 59 l0 58 -49 7 c-39
5 -50 11 -55 29 -9 34 -8 37 20 37 31 0 57 -29 43 -46 -6 -8 -2 -10 16 -6 27
5 35 22 10 22 -10 0 -15 10 -15 34 0 19 -5 47 -10 61 -11 28 1 63 26 78 10 6
13 33 12 103 -1 83 -3 94 -17 90 -13 -5 -13 -4 2 8 9 7 17 18 17 25 0 14 -47
15 -52 0 -2 -6 -55 12 -128 45 -69 30 -192 84 -275 119 l-150 64 -3 71 c-2 40
-1 72 1 72 10 0 469 -163 562 -200 30 -12 30 -12 7 -21 -29 -11 -20 -29 14
-29 22 0 25 4 22 32 l-3 33 -302 105 -303 105 0 41 0 42 63 7 c123 13 147 26
147 76 0 23 -5 23 66 -2 38 -13 95 -23 159 -26 93 -6 101 -8 126 -34 15 -16
30 -37 35 -46 6 -15 8 -13 12 11 2 19 -3 36 -19 52 l-22 24 21 0 22 0 0 365 0
365 -35 0 c-20 0 -93 -7 -163 -14 -177 -21 -433 -45 -522 -51 -41 -2 -114 -7
-162 -10 l-86 -6 -1 168 c-1 92 -6 172 -11 177 -6 6 -16 4 -27 -6 -10 -9 -27
-18 -38 -21 -20 -5 -20 -5 1 -6 11 0 25 4 31 10 27 27 34 -3 32 -140 -2 -106
-6 -140 -18 -155 -12 -14 -13 -20 -3 -23 6 -3 12 -15 12 -28 0 -29 -2 -29
-220 -45 -85 -6 -181 -14 -212 -17 -56 -6 -57 -5 -52 18 4 17 3 20 -4 10 -6
-9 -12 16 -17 80 -4 52 -10 112 -15 134 l-8 40 -1 -47 c-1 -27 -6 -48 -13 -51
-8 -3 -5 -6 5 -6 15 -1 18 -9 15 -53 -3 -46 -6 -54 -34 -70 l-31 -18 -13 43
c-8 23 -20 46 -27 50 -7 4 -13 17 -13 27 0 10 -4 21 -9 24 -14 9 -41 -4 -41
-20 0 -8 -4 -14 -10 -14 -5 0 -10 -6 -10 -13 0 -8 -9 -24 -20 -37 -11 -13 -20
-26 -20 -31 0 -19 -38 6 -63 42 -31 43 -44 48 -54 22 -12 -33 -60 -81 -73 -73
-8 5 -9 10 -1 14 12 8 -19 45 -33 38 -4 -2 -2 -8 5 -13 10 -6 5 -12 -20 -22
-31 -13 -32 -15 -15 -31 14 -15 15 -19 3 -27 -11 -7 -8 -9 9 -9 13 0 21 -4 18
-8 -2 -4 10 -14 27 -21 56 -22 77 -34 77 -42 0 -5 -12 -4 -26 1 -33 13 -44 12
-21 -1 9 -6 15 -15 11 -20 -3 -6 2 -9 12 -7 11 2 18 -2 16 -9 -1 -7 2 -13 7
-13 5 0 11 -6 14 -12 2 -7 3 -5 2 5 -4 20 15 23 33 5 10 -10 15 -10 21 1 6 9
16 11 27 7 18 -7 18 -8 0 -22 -11 -8 -14 -14 -8 -14 7 0 12 -11 12 -25 0 -14
-5 -25 -10 -25 -6 0 -10 6 -8 14 5 23 -24 23 -48 -1 -16 -16 -16 -16 -10 5 5
13 3 22 -3 22 -6 0 -11 -7 -11 -16 0 -14 -3 -14 -15 -4 -18 15 -20 13 -29 -17
-4 -14 -2 -24 7 -30 8 -4 17 -15 20 -23 4 -12 6 -11 6 3 1 9 8 17 16 17 7 0
19 8 24 18 9 14 10 13 9 -10 -1 -16 -8 -28 -15 -28 -7 0 -13 -4 -13 -10 0 -5
7 -7 15 -4 11 4 15 -1 15 -17 1 -22 2 -23 14 -6 17 22 26 22 26 -3 0 -13 7
-20 20 -20 12 0 24 -10 30 -22 5 -13 9 -18 10 -13 1 6 5 1 10 -10 6 -17 9 -13
15 20 10 51 26 66 78 73 l42 5 -40 19 c-22 10 -30 16 -19 13 17 -4 22 -1 20
12 0 10 -9 21 -18 25 -10 4 -18 15 -18 23 0 9 4 13 10 10 6 -3 7 1 4 9 -5 12
0 16 18 16 13 0 30 6 37 13 10 10 14 9 22 -5 6 -10 15 -18 20 -18 6 0 8 4 5 8
-2 4 -1 14 5 22 6 11 9 1 9 -30 -1 -43 -1 -44 -17 -25 -13 16 -15 17 -10 3 4
-12 1 -18 -9 -18 -9 0 -18 9 -21 20 -3 11 -11 20 -17 20 -15 0 -18 -34 -5 -68
9 -24 11 -25 20 -9 6 9 15 15 20 11 5 -3 16 0 24 6 13 11 15 4 15 -49 0 -42
-4 -61 -12 -62 -71 -6 -102 -10 -106 -14 -3 -3 11 -5 31 -5 20 0 37 -4 37 -10
0 -5 10 -10 23 -11 12 0 16 -3 10 -6 -18 -6 -16 -23 1 -23 8 0 16 -3 18 -7 2
-5 21 -5 43 -2 38 6 38 6 8 8 -59 2 -35 20 27 20 34 0 58 -5 55 -10 -4 -5 -2
-9 4 -9 5 0 12 6 15 13 5 9 7 9 12 -1 3 -6 10 -10 15 -6 5 3 25 -1 45 -8 29
-10 37 -10 43 1 14 22 46 8 49 -22 3 -24 0 -27 -28 -27 -25 0 -31 4 -26 15 7
18 -13 19 -67 4 -21 -5 -35 -14 -32 -19 3 -4 -1 -10 -7 -13 -8 -3 -3 -9 12
-15 14 -6 63 -27 110 -46 46 -20 87 -33 91 -28 4 4 9 25 11 47 l4 40 13 -49
c12 -42 19 -51 55 -67 48 -22 87 -25 83 -6 -1 7 12 13 36 15 41 4 49 -10 15
-25 -19 -9 -11 -12 52 -19 67 -8 75 -11 78 -31 2 -13 2 -23 -1 -23 -2 0 -37
11 -77 25 -78 27 -94 30 -86 17 3 -4 39 -19 81 -32 81 -25 105 -49 105 -104 0
-27 23 -56 46 -56 8 0 14 -3 14 -7 0 -5 -22 -6 -50 -5 -35 3 -50 0 -50 -9 0
-8 -6 -7 -18 4 -22 20 -48 22 -55 5 -3 -7 -6 -2 -8 12 -1 14 -3 30 -3 37 -1 6
-5 15 -9 19 -4 4 -7 18 -7 30 0 13 -9 28 -21 34 -25 14 -20 19 -53 -55 -27
-60 -34 -101 -22 -146 l6 -24 -11 22 c-7 13 -20 25 -30 28 -23 7 -25 21 -5 28
18 7 9 47 -10 47 -18 0 -29 21 -16 29 16 10 18 62 3 89 -20 37 -46 24 -47 -24
-1 -42 -43 -113 -68 -115 -6 0 -2 -4 9 -9 18 -8 18 -9 2 -9 -26 -1 -10 -21 17
-21 25 0 66 -34 66 -55 0 -18 -17 -28 -25 -15 -3 5 -16 10 -28 9 -21 -1 -21
-1 -2 -7 30 -10 24 -36 -10 -43 -27 -6 -28 -7 -5 -8 43 -2 56 -16 42 -45 -9
-19 -19 -26 -41 -26 -16 0 -33 -4 -36 -10 -3 -5 -2 -10 3 -10 5 0 23 -13 40
-30 33 -31 50 -34 115 -23 26 4 36 10 33 19 -3 8 6 21 19 30 20 13 22 19 14
41 -5 15 -6 30 -2 34 14 14 187 24 179 11 -5 -8 5 -12 34 -12 34 0 41 3 36 16
-3 8 -2 12 4 9 5 -3 9 13 8 39 0 28 -6 47 -14 50 -8 3 -13 16 -13 28 1 16 3
18 6 6 4 -17 32 -32 41 -23 3 3 1 10 -4 15 -5 5 -7 36 -6 69 3 52 7 61 23 61
10 0 28 -9 39 -20 18 -18 20 -31 18 -93 l-3 -72 -37 -3 c-27 -2 -38 -8 -38
-19 0 -11 3 -13 13 -5 12 10 22 12 89 13 24 0 84 -22 193 -71 22 -10 74 -33
115 -50 159 -67 202 -91 194 -109 -3 -9 -9 -24 -11 -34 -4 -11 -11 -16 -20
-13 -37 15 -63 17 -63 7 0 -6 12 -14 28 -17 46 -11 46 -15 2 -53 l-42 -36 21
-75 c12 -41 22 -83 22 -92 0 -10 4 -20 10 -23 12 -8 12 -65 -1 -65 -5 0 -7 -7
-4 -15 4 -8 12 -15 18 -15 7 0 18 -11 24 -25 6 -14 8 -25 3 -25 -5 0 -16 -3
-25 -6 -10 -4 -16 -1 -16 10 0 25 -33 86 -46 86 -7 0 -18 -8 -23 -17 -8 -14
-10 -5 -9 37 2 39 7 59 20 68 19 14 14 42 -8 42 -8 0 -14 8 -14 19 0 40 -23
81 -56 100 l-34 20 20 33 c25 41 26 80 3 99 -88 70 -136 44 -126 -69 5 -52 8
-59 18 -46 11 15 12 15 17 -3 4 -15 -1 -24 -18 -32 -21 -9 -24 -17 -24 -71 0
-40 -4 -60 -12 -60 -9 0 -9 -3 0 -12 21 -21 13 -27 -18 -15 -16 6 -30 15 -30
19 0 4 -18 8 -40 8 -37 0 -40 2 -40 27 0 33 -65 98 -107 106 -71 14 -123 -24
-123 -90 l0 -43 -280 0 c-154 0 -280 2 -280 4 0 2 16 11 35 20 21 10 41 30 51
51 15 32 15 38 1 68 -29 60 -40 123 -27 147 27 50 8 143 -31 155 -26 9 -69
-12 -69 -33 0 -28 21 -82 31 -82 14 0 11 -26 -5 -39 -8 -7 -22 -41 -31 -76
-16 -57 -21 -65 -41 -65 -13 0 -24 -4 -24 -10 0 -5 5 -10 11 -10 5 0 -4 -15
-21 -33 -16 -17 -28 -38 -25 -46 5 -11 3 -12 -10 -1 -9 7 -15 8 -15 2 0 -12
-18 -11 -39 2 -11 7 -13 4 -8 -13 5 -20 3 -22 -25 -16 -19 5 -28 3 -24 -3 10
-17 -34 -22 -179 -20 -77 0 -126 3 -110 5 17 2 37 7 45 10 8 4 40 12 70 17 58
12 75 31 27 31 -16 1 -32 7 -37 15 -8 13 -10 13 -10 -1 0 -9 -7 -16 -15 -16
-8 0 -15 6 -15 14 0 7 -5 13 -11 13 -5 0 -7 5 -4 11 5 6 12 4 20 -8 13 -17 14
-17 10 2 -2 11 -4 23 -4 27 -1 4 -8 5 -16 2 -8 -4 -15 -2 -15 4 0 6 5 12 12
14 17 6 0 28 -22 28 -19 0 -30 19 -30 50 0 11 -9 24 -20 30 -18 10 -22 7 -35
-24 -8 -19 -20 -38 -26 -41 -5 -4 -8 -13 -5 -21 3 -8 -1 -14 -9 -14 -8 0 -15
-9 -15 -19 0 -11 -4 -23 -10 -26 -5 -3 -10 -14 -10 -23 0 -14 -15 -20 -72 -29
-40 -7 -91 -21 -113 -33 -21 -11 -48 -20 -58 -20 -14 0 -17 -5 -12 -20 4 -11
2 -20 -4 -20 -6 0 -10 3 -10 8 1 4 1 47 0 95 -1 74 -4 89 -18 94 -33 12 -44
42 -15 39 11 0 16 5 13 14 -2 8 -5 39 -7 68 -2 52 -2 52 28 52 l31 0 -6 77
c-8 107 -19 134 -67 157 -24 12 -43 30 -51 49 -12 29 -11 32 30 67 l42 37 -16
56 c-11 37 -26 65 -46 82 -36 29 -39 30 -84 10 -41 -16 -55 -46 -55 -114 0
-38 5 -52 25 -69 14 -13 25 -33 25 -47 0 -23 -4 -25 -45 -25 -38 0 -45 -3 -45
-19 0 -11 -14 -50 -30 -87 -19 -41 -27 -71 -21 -77 5 -5 6 -26 4 -48 -6 -40
-2 -43 44 -42 12 1 10 -30 -8 -112 -4 -22 -4 -42 0 -45 4 -3 6 -44 3 -92 l-5
-88 -249 0 c-234 0 -250 1 -244 18 6 16 5 16 -8 -1 -12 -16 -38 -17 -312 -16
-165 1 -303 0 -309 -1 -5 -1 -44 -2 -85 -1 -51 1 -70 4 -60 11 12 7 10 9 -7 7
-12 0 -19 -5 -17 -9 3 -4 -2 -8 -11 -8 -10 0 -14 5 -9 13 6 10 4 10 -7 0 -30
-28 -38 -11 -10 20 17 17 31 40 31 50 0 14 5 17 20 12 14 -5 20 -2 20 10 0 10
5 14 13 10 6 -4 3 1 -7 9 -11 9 -15 16 -9 16 6 0 20 3 30 6 15 5 16 4 3 -6
-13 -10 -13 -11 0 -7 8 2 14 10 12 16 -1 7 3 21 9 33 9 18 9 20 -4 15 -9 -3
-18 1 -21 9 -3 8 -12 14 -20 14 -15 0 -29 27 -21 40 3 4 -2 13 -10 20 -22 18
-18 41 11 74 21 23 28 26 35 15 5 -8 9 -9 9 -3 0 7 25 12 63 13 39 1 67 7 77
16 10 10 11 15 2 15 -7 0 -12 7 -12 15 0 11 7 14 24 9 14 -3 38 1 57 11 45 23
45 23 23 40 -11 8 -14 15 -7 15 11 0 12 13 4 48 -1 2 -8 -4 -17 -12 -20 -20
-29 -20 -49 0 -15 15 -17 15 -22 -4 -3 -12 -4 -25 -3 -29 2 -9 -32 -22 -42
-16 -5 2 -8 16 -8 31 0 17 3 22 8 15 6 -9 12 -8 24 6 15 18 14 20 -11 31 -15
7 -21 15 -13 17 19 7 14 34 -10 54 -11 11 -17 19 -12 20 5 0 17 2 27 4 9 2 17
-3 17 -10 0 -21 27 -25 44 -6 16 17 15 19 -16 26 -18 4 -36 7 -40 7 -3 -1 -12
12 -20 28 -19 44 -37 45 -54 4 -8 -19 -21 -37 -29 -41 -8 -3 -15 -13 -15 -22
0 -26 -21 -41 -57 -41 -36 0 -47 -25 -15 -33 9 -3 2 -4 -16 -4 -19 1 -36 6
-39 11 -3 5 -2 6 4 3 5 -4 16 4 23 18 7 13 18 21 26 18 17 -6 17 -2 4 31 -6
16 -17 26 -30 26 -15 0 -22 -10 -31 -46 -7 -25 -21 -55 -33 -66 -12 -12 -14
-17 -6 -13 8 5 12 5 8 0 -4 -4 -25 -9 -46 -11 -21 -2 -58 -10 -81 -19 -24 -8
-53 -15 -64 -15 -11 0 -17 -3 -14 -7 4 -3 2 -12 -4 -19 -13 -16 25 -39 44 -27
12 7 98 20 182 27 55 5 55 5 55 17 0 6 -9 8 -20 4 -11 -4 -20 -2 -20 4 0 6 8
11 18 12 9 0 50 3 90 5 73 5 74 5 67 -18 -4 -13 -13 -33 -21 -45 -8 -13 -10
-23 -4 -23 19 0 10 -15 -17 -27 -18 -9 -29 -9 -33 -3 -7 12 -70 32 -68 22 1
-4 -3 -17 -10 -30 -7 -12 -10 -27 -7 -32 3 -5 -3 -13 -12 -19 -17 -10 -17 -10
0 -11 9 0 17 -4 17 -10 0 -5 -7 -6 -17 -3 -10 4 -14 2 -10 -4 4 -6 -4 -18 -18
-27 -14 -9 -25 -23 -25 -31 0 -8 -4 -15 -9 -15 -9 0 -26 -48 -23 -62 1 -5 -7
-17 -18 -28 -19 -19 -21 -19 -40 -3 -15 14 -17 20 -7 32 10 12 9 14 -6 8 -10
-4 -20 -7 -23 -7 -2 0 -1 -6 2 -14 4 -10 -5 -14 -37 -14 -23 -1 -45 -6 -49
-12 -5 -8 -9 -7 -13 3 -8 21 1 27 39 27 18 0 36 5 39 10 4 6 -7 10 -25 10 -17
0 -29 4 -26 9 4 5 -11 7 -34 4 -22 -3 -40 -3 -40 1 0 22 37 57 69 66 27 7 39
17 48 39 9 25 8 30 -8 34 -10 3 -21 2 -24 -1 -3 -3 -18 -8 -33 -9 -15 -2 -33
-11 -39 -20 -7 -9 -16 -13 -20 -9 -4 4 -1 11 7 16 8 5 11 12 7 16 -3 4 -12 2
-19 -3 -25 -19 -48 -11 -48 16 0 15 -9 34 -20 44 -23 20 -34 22 -24 5 5 -8 2
-9 -11 -4 -15 5 -16 4 -5 -9 11 -13 10 -14 -4 -9 -11 4 -16 1 -16 -10 0 -9 -4
-16 -10 -16 -5 0 -10 -7 -10 -15 0 -8 -5 -15 -10 -15 -6 0 -9 -3 -9 -7 3 -21
-3 -33 -17 -33 -10 0 -14 6 -11 14 4 9 -3 16 -15 19 -26 7 -121 -39 -112 -54
4 -8 -1 -9 -16 -4 -16 5 -20 4 -15 -5 4 -7 2 -10 -6 -9 -18 3 -61 -15 -60 -24
2 -19 0 -21 -9 -7 -7 11 -10 0 -10 -37 0 -49 2 -53 24 -53 13 0 29 -7 36 -15
9 -11 9 -15 1 -15 -7 0 -9 -5 -6 -10 4 -7 -7 -10 -33 -9 -22 2 -47 -3 -55 -9
-12 -10 -16 -8 -21 12 -3 14 -2 44 3 67 7 32 6 53 -5 86 -16 47 -6 80 22 69
14 -5 54 43 54 64 0 7 -14 31 -32 54 -20 26 -23 33 -8 19 l23 -22 50 20 c27
11 57 17 67 14 20 -6 50 3 50 16 0 5 -5 8 -11 7 -6 -2 -14 3 -17 11 -3 10 1
12 18 8 13 -3 36 1 53 10 29 14 128 53 329 128 76 28 88 30 91 16 3 -9 4 96 3
234 l-1 250 -30 5 c-28 5 -28 6 -7 12 20 5 22 13 23 70 1 34 4 50 6 33 3 -16
10 -36 15 -43 8 -9 8 -16 0 -24 -14 -14 -16 -38 -3 -38 5 0 13 9 16 20 7 24
25 27 25 5 0 -12 4 -13 19 -5 11 5 26 10 33 9 7 0 4 -5 -7 -10 -19 -9 -19 -9
2 -5 16 3 20 0 16 -13 -3 -9 -12 -23 -20 -32 -12 -15 -6 -17 61 -23 94 -8 119
-2 133 33 l10 29 -51 6 c-28 3 -67 6 -86 6 -23 0 -42 7 -53 20 -12 14 -24 19
-41 14 -25 -6 -44 10 -26 21 5 3 11 23 11 43 l2 37 7 -40 c7 -38 13 -32 11 10
0 14 2 12 10 -7 7 -17 18 -28 30 -28 11 0 23 -10 28 -22 6 -17 9 -18 14 -5 8
22 47 10 47 -15 0 -10 5 -16 10 -13 16 10 12 65 -5 71 -20 8 -19 24 0 24 16 0
23 -11 28 -48 5 -34 23 -48 42 -32 8 7 15 19 15 26 0 8 5 14 11 14 6 0 9 -7 5
-15 -4 -10 1 -15 15 -15 11 0 18 4 14 9 -3 5 -1 12 5 16 5 3 10 -3 10 -14 0
-11 5 -23 10 -26 6 -3 10 3 10 15 0 17 2 19 14 8 8 -7 10 -14 5 -16 -5 -2 -9
-9 -9 -15 0 -6 8 -3 18 7 12 13 13 20 5 23 -7 2 -9 11 -6 19 6 17 24 19 22 2
-5 -41 1 -50 28 -43 37 9 39 12 25 35 -10 16 -9 18 3 14 8 -4 15 -17 15 -31 0
-13 4 -21 10 -18 6 3 10 16 10 27 0 21 0 21 21 2 17 -15 23 -16 27 -5 6 19 40
51 53 51 5 0 8 -4 4 -9 -3 -5 -1 -12 5 -16 6 -4 11 9 11 32 1 23 3 29 6 16 2
-13 9 -23 14 -23 5 0 15 -11 21 -25 8 -18 15 -22 23 -15 7 5 15 7 18 3 4 -3 7
1 7 10 0 9 -8 20 -17 26 -17 9 -16 12 6 33 l23 23 -6 -27 c-3 -16 -3 -28 1
-28 5 0 9 -18 11 -40 2 -38 1 -40 -25 -41 l-28 -1 28 -10 c29 -10 29 -10 29
-116 0 -29 4 -50 9 -46 5 3 9 34 9 69 l0 64 94 -4 c99 -5 180 5 199 24 9 9 8
11 -5 6 -11 -4 -18 -2 -18 4 0 6 7 11 15 11 16 0 38 34 28 44 -3 3 -15 6 -26
6 -13 0 -17 5 -13 16 3 9 6 29 6 45 0 30 23 41 33 17 4 -10 8 -9 17 2 9 11 13
12 17 3 2 -7 11 -13 19 -13 8 0 14 -7 14 -16 0 -8 -4 -12 -10 -9 -16 10 -12
-15 5 -31 10 -11 14 -30 11 -60 -3 -40 -1 -44 18 -44 12 0 27 5 34 12 8 8 10
-7 6 -63 -2 -41 -2 -69 2 -62 3 7 12 9 21 6 14 -6 15 1 10 53 -4 32 -10 70
-14 84 -6 21 -4 23 9 13 14 -12 28 -8 28 8 0 5 -7 6 -16 2 -13 -5 -15 -2 -9
15 4 13 2 22 -4 22 -6 0 -11 -7 -11 -15 0 -8 -4 -15 -10 -15 -5 0 -10 -6 -10
-13 0 -7 -9 -18 -20 -25 -11 -7 -20 -8 -20 -3 0 6 5 13 11 17 8 4 7 9 -2 15
-11 7 -10 9 4 9 9 0 17 7 17 16 0 10 -6 14 -15 10 -9 -3 -15 0 -15 8 0 8 -5
16 -12 18 -7 3 -5 13 8 33 l18 28 7 -24 c5 -18 7 -19 8 -5 1 12 6 16 16 12 8
-3 15 -1 15 4 0 6 -4 10 -10 10 -5 0 -10 5 -10 10 0 6 7 10 16 10 11 0 14 5
10 16 -3 9 -6 27 -6 41 0 19 -4 24 -16 19 -22 -9 -43 16 -48 58 -5 39 7 46 45
26 15 -9 26 -6 48 10 16 11 34 20 40 20 16 0 13 11 -6 27 -16 13 -16 14 10 10
15 -2 27 0 27 5 0 5 4 7 9 3 5 -3 13 0 17 6 5 9 -3 10 -30 5 -22 -4 -36 -3
-36 3 0 6 6 8 14 5 16 -6 19 44 4 63 -6 7 -8 19 -4 28 4 12 2 13 -14 3 -24
-16 -41 -1 -18 16 10 7 15 16 11 20 -3 3 -14 -1 -24 -10 -20 -18 -43 -10 -35
12 3 8 1 14 -4 14 -6 0 -10 -7 -10 -15 0 -8 -8 -15 -17 -15 -18 -1 -53 -22
-53 -33 0 -4 6 -4 14 -1 8 3 17 1 21 -5 3 -6 2 -11 -4 -11 -6 0 -8 -7 -5 -15
7 -18 -22 -21 -30 -2 -3 6 -3 -5 0 -26 3 -22 1 -37 -3 -34 -5 3 -15 2 -23 -4
-13 -7 -13 -9 0 -10 8 0 4 -5 -10 -9 -25 -8 -25 -8 8 -15 17 -4 32 -12 32 -17
0 -6 -9 -8 -20 -5 -13 3 -20 0 -20 -9 0 -8 -5 -14 -11 -14 -5 0 -8 -4 -5 -8 3
-5 -4 -16 -15 -25 -18 -16 -19 -16 -19 20 0 34 -1 35 -14 18 -13 -18 -18 -18
-49 -7 -34 12 -67 8 -67 -9 0 -5 -8 -9 -18 -9 -21 0 -46 36 -32 45 15 9 1 27
-16 21 -9 -4 -14 2 -14 15 0 13 -4 18 -12 13 -7 -5 -9 -2 -5 8 8 22 -2 29 -24
17 -24 -12 -24 -32 -1 -55 16 -17 16 -18 -1 -11 -10 4 -21 7 -23 7 -2 0 -4 15
-4 34 0 26 5 36 20 41 11 3 20 11 20 16 0 6 -8 6 -20 -1 -19 -10 -20 -8 -20
84 l0 95 41 -14 c49 -18 49 -18 49 -6 0 5 -21 17 -46 27 -37 14 -42 19 -29 26
10 6 27 6 45 -1 16 -5 32 -6 34 -2 7 11 -39 31 -69 31 -16 0 -25 6 -25 15 0
17 49 18 85 3 19 -9 19 -9 -1 9 -13 11 -36 18 -64 18 -43 0 -54 -11 -50 -50 0
-5 2 -44 4 -85 3 -41 7 -98 11 -127 3 -28 3 -79 -1 -112 -5 -49 -9 -59 -20
-50 -7 6 -22 8 -34 4 -24 -8 -27 10 -2 20 16 6 16 7 -2 21 -11 7 -17 17 -13
20 3 4 1 16 -5 27 -10 19 -11 19 -20 3 -6 -11 -6 -21 1 -30 14 -17 3 -28 -19
-16 -19 10 -60 3 -60 -11 0 -18 -29 -9 -35 11 -4 14 -15 20 -36 20 -20 0 -29
5 -29 16 0 8 4 13 8 10 4 -2 8 4 8 15 0 10 -6 19 -13 19 -7 0 -13 2 -13 5 0
11 76 85 88 85 6 0 12 9 12 20 0 27 18 25 23 -2 2 -13 5 15 6 61 0 46 -2 81
-6 77 -4 -3 -6 -29 -4 -57 2 -36 -1 -49 -9 -44 -7 4 -11 33 -10 73 1 37 1 192
1 345 -2 268 -7 313 -31 255 -11 -28 -9 -52 -16 267 -4 149 -8 272 -10 274 -2
2 -4 -8 -4 -23z m-80 -340 c0 -11 -19 -15 -25 -6 -3 5 1 10 9 10 9 0 16 -2 16
-4z m57 -2 c-3 -3 -12 -4 -19 -1 -8 3 -5 6 6 6 11 1 17 -2 13 -5z m73 -214 c0
-5 -7 -10 -15 -10 -8 0 -15 5 -15 10 0 6 7 10 15 10 8 0 15 -4 15 -10z m-9
-143 c-1 -12 -15 -9 -19 4 -3 6 1 10 8 8 6 -3 11 -8 11 -12z m-851 -107 c0 -5
-2 -10 -4 -10 -3 0 -8 5 -11 10 -3 6 -1 10 4 10 6 0 11 -4 11 -10z m739 1 c22
-14 9 -30 -17 -20 -13 5 -20 13 -17 19 8 12 16 12 34 1z m-909 -30 c0 -5 -9
-11 -21 -14 -16 -4 -18 -3 -8 9 13 16 29 19 29 5z m28 -58 c-10 -2 -26 -2 -35
0 -10 3 -2 5 17 5 19 0 27 -2 18 -5z m-510 -235 c14 -14 16 -48 3 -48 -5 0
-13 9 -16 21 -5 14 -13 19 -26 16 -21 -6 -26 8 -6 16 21 9 32 8 45 -5z m1312
-38 c0 -5 -5 -10 -11 -10 -5 0 -7 5 -4 10 3 6 8 10 11 10 2 0 4 -4 4 -10z m20
-45 c0 -8 -4 -15 -10 -15 -5 0 -7 7 -4 15 4 8 8 15 10 15 2 0 4 -7 4 -15z
m-855 -24 c-3 -6 -13 -11 -21 -11 -8 0 -12 5 -9 10 4 6 11 8 16 5 5 -4 9 -1 9
6 0 7 3 10 6 6 3 -3 3 -10 -1 -16z m872 -3 c-3 -8 -6 -5 -6 6 -1 11 2 17 5 13
3 -3 4 -12 1 -19z m123 6 c0 -14 -3 -14 -15 -4 -8 7 -15 14 -15 16 0 2 7 4 15
4 8 0 15 -7 15 -16z m-1468 -104 c2 -45 -1 -75 -7 -75 -6 0 -11 37 -13 85 -2
54 1 81 7 75 5 -6 11 -44 13 -85z m497 44 c-7 -8 -18 -13 -25 -10 -7 3 -15 0
-18 -7 -2 -7 -5 -3 -5 7 -1 10 -9 25 -18 32 -13 10 -13 13 -3 9 8 -3 29 -1 45
3 34 10 46 -8 24 -34z m905 -6 c6 -4 7 -10 4 -14 -11 -10 -40 24 -32 38 6 9 9
8 12 -2 3 -8 10 -18 16 -22z m796 12 c0 -5 -6 -10 -14 -10 -8 0 -16 -5 -18
-12 -2 -6 -10 -8 -17 -4 -9 6 -8 11 6 22 21 16 43 18 43 4z m-1447 -42 c92
-48 98 -50 95 -31 -2 9 2 18 8 20 7 2 9 -8 6 -28 -3 -23 -1 -30 8 -27 7 2 31
-16 54 -40 38 -41 43 -44 83 -39 35 4 40 2 28 -9 -7 -8 -21 -11 -29 -8 -9 3
-16 1 -16 -5 0 -6 18 -11 43 -11 l43 0 -4 38 c-3 33 0 39 28 56 27 15 34 16
41 5 12 -20 12 -21 -22 -57 -29 -31 -31 -52 -4 -52 15 0 28 -27 19 -42 -5 -7
-49 -9 -134 -4 l-127 7 -8 -33 -9 -33 -3 31 c-4 31 -4 31 -80 38 -111 9 -151
8 -133 -4 9 -6 10 -10 3 -10 -7 0 -16 7 -21 16 -6 11 -18 15 -35 12 -18 -4
-24 -1 -20 9 3 7 8 13 12 13 4 0 16 6 26 14 16 12 17 15 4 27 -16 16 -61 19
-71 4 -4 -5 -8 0 -8 12 0 12 8 27 18 32 15 9 15 12 2 21 -8 5 -10 10 -5 11 6
0 1 4 -10 8 -19 8 -19 8 3 20 36 19 77 5 98 -35 10 -18 25 -35 34 -35 8 -1 22
-2 31 -3 9 -1 24 -8 35 -16 17 -14 18 -14 6 2 -11 14 -11 16 7 11 26 -7 108
41 90 53 -7 4 -14 3 -17 -4 -2 -7 -8 -12 -14 -12 -6 0 -6 6 2 14 10 13 -1 22
-67 55 -43 22 -72 40 -65 41 7 0 41 -15 75 -32z m1457 7 c0 -8 -7 -15 -15 -15
-16 0 -20 12 -8 23 11 12 23 8 23 -8z m-995 -5 c3 -5 1 -10 -4 -10 -6 0 -11 5
-11 10 0 6 2 10 4 10 3 0 8 -4 11 -10z m-209 -25 c-18 -14 -66 -21 -66 -10 0
5 57 23 75 24 6 0 1 -6 -9 -14z m764 -9 c0 -2 -8 -10 -17 -17 -16 -13 -17 -12
-4 4 13 16 21 21 21 13z m457 -12 c-3 -4 -23 -9 -44 -11 -44 -5 -38 6 9 16 34
8 46 6 35 -5z m-666 -83 c-12 -12 -21 -16 -21 -10 0 5 -5 7 -11 3 -7 -4 -10
-1 -7 7 4 12 48 30 56 23 2 -1 -6 -12 -17 -23z m2709 -65 c0 -6 -5 -3 -11 7
-8 14 -14 16 -25 6 -11 -9 -14 -8 -14 3 0 8 3 18 7 21 8 9 43 -22 43 -37z
m-1040 24 c0 -5 -4 -10 -10 -10 -5 0 -10 5 -10 10 0 6 5 10 10 10 6 0 10 -4
10 -10z m-1690 -20 c0 -5 -5 -10 -11 -10 -5 0 -7 5 -4 10 3 6 8 10 11 10 2 0
4 -4 4 -10z m3323 -27 c-7 -2 -19 -2 -25 0 -7 3 -2 5 12 5 14 0 19 -2 13 -5z
m122 -3 c-22 -4 -32 -8 -22 -9 9 0 17 -5 17 -10 0 -9 -84 -19 -114 -13 -30 6
-16 22 19 22 19 0 35 5 35 10 0 6 23 9 53 9 l52 -2 -40 -7z m-235 -20 l-25 -8
25 -2 c16 -1 20 -4 10 -7 -8 -3 -18 -11 -22 -17 -5 -8 -8 -7 -8 2 0 7 -12 12
-27 11 -17 0 -22 -3 -13 -6 8 -4 20 -13 27 -22 6 -9 17 -16 24 -16 7 0 14 -5
16 -11 3 -8 -11 -10 -44 -7 -36 3 -44 2 -33 -6 13 -10 13 -11 0 -12 -11 0 -11
-2 -2 -6 10 -4 10 -8 0 -21 -10 -12 -10 -14 0 -8 6 4 12 3 12 -3 0 -13 -70 -9
-71 4 -1 6 -5 -1 -9 -15 -6 -17 -8 -3 -7 48 1 58 4 72 17 72 12 1 12 3 -3 11
-33 19 -6 29 76 28 56 -1 74 -3 57 -9z m-2580 -4 c0 -3 -4 -8 -10 -11 -5 -3
-10 -1 -10 4 0 6 5 11 10 11 6 0 10 -2 10 -4z m2035 -16 c3 -5 1 -10 -4 -10
-6 0 -11 5 -11 10 0 6 2 10 4 10 3 0 8 -4 11 -10z m180 0 c3 -5 -1 -10 -9 -10
-9 0 -16 5 -16 10 0 6 4 10 9 10 6 0 13 -4 16 -10z m-3735 -4 c0 -2 -7 -6 -15
-10 -8 -3 -15 -1 -15 4 0 6 7 10 15 10 8 0 15 -2 15 -4z m437 -18 c-3 -8 -6
-5 -6 6 -1 11 2 17 5 13 3 -3 4 -12 1 -19z m3913 14 c0 -14 -11 -21 -26 -15
-21 8 -17 23 6 23 11 0 20 -4 20 -8z m-860 -12 c0 -5 -2 -10 -4 -10 -3 0 -8 5
-11 10 -3 6 -1 10 4 10 6 0 11 -4 11 -10z m775 -1 c-16 -6 -16 -8 -3 -8 25 -1
15 -35 -11 -39 -36 -6 -49 4 -44 31 4 21 10 25 41 25 29 0 33 -2 17 -9z
m-4265 -13 c0 -2 -7 -9 -15 -16 -13 -11 -14 -10 -9 4 5 14 24 23 24 12z m1321
-105 c-5 -3 -13 -19 -16 -34 -9 -35 -25 -45 -25 -15 l-1 23 -14 -25 c-14 -25
-14 -25 -15 -2 0 12 -6 22 -12 23 -7 0 -21 2 -30 4 -10 2 -21 -3 -26 -10 -8
-15 -71 -23 -89 -12 -7 4 -13 0 -16 -10 -3 -11 -5 -8 -6 10 0 15 4 27 9 27 6
0 9 13 8 28 -2 34 10 55 28 48 7 -3 16 -1 19 4 7 11 65 -11 65 -25 0 -5 -21
-18 -46 -29 -59 -24 -48 -33 21 -16 53 13 68 24 44 32 -13 4 -3 68 11 68 4 0
15 -15 24 -32 l16 -33 0 28 c0 18 5 27 16 27 10 0 14 -6 11 -14 -4 -10 -1 -13
9 -9 7 3 15 17 16 32 1 14 3 2 5 -28 2 -30 0 -57 -6 -60z m1604 61 l0 -37 53
0 c47 0 52 2 52 22 0 13 5 23 11 23 7 0 9 -10 5 -25 -5 -19 -3 -23 9 -19 10 4
15 2 13 -7 -2 -7 7 -15 19 -17 22 -3 37 -27 27 -43 -3 -6 -29 -9 -57 -7 -29 1
-58 -1 -64 -5 -9 -5 -13 -2 -13 8 0 12 -5 15 -16 11 -9 -3 -23 -6 -32 -6 -12
0 -13 -3 -4 -12 9 -9 129 -14 180 -7 21 3 31 -3 26 -16 -4 -8 -10 -12 -15 -9
-5 3 -6 -2 -3 -10 5 -12 0 -16 -20 -16 -14 0 -26 -4 -26 -10 0 -5 -8 -10 -17
-10 -14 0 -15 2 -5 9 21 13 -15 23 -38 11 -23 -13 -40 -13 -20 0 10 6 5 9 -18
8 -37 -1 -63 25 -59 57 1 14 10 20 26 20 18 0 25 7 28 25 1 14 0 20 -4 13 -5
-6 -17 -13 -28 -15 -18 -3 -20 3 -23 57 -2 33 0 56 5 52 4 -5 8 -25 8 -45z
m645 33 c0 -2 -7 -5 -15 -9 -9 -3 -15 0 -15 9 0 9 6 12 15 9 8 -4 15 -7 15 -9z
m-3332 -72 c-3 -32 -11 -58 -19 -64 -21 -12 -31 26 -23 88 6 49 8 52 26 42 18
-9 20 -18 16 -66z m3002 66 c0 -5 4 -8 9 -4 10 6 27 -62 18 -71 -6 -6 -47 59
-47 75 0 6 5 11 10 11 6 0 10 -5 10 -11z m520 -10 c0 -5 -11 -8 -25 -7 -14 1
-25 8 -25 14 0 7 10 9 25 6 14 -2 25 -8 25 -13z m-750 1 c0 -5 -5 -10 -11 -10
-5 0 -7 5 -4 10 3 6 8 10 11 10 2 0 4 -4 4 -10z m-300 -20 c0 -11 -39 -24 -47
-16 -3 3 -3 12 0 20 6 15 47 11 47 -4z m698 -58 c-4 -13 -6 -27 -3 -32 3 -4 0
-19 -5 -32 -10 -23 -10 -23 -6 0 2 12 0 22 -5 22 -5 0 -7 11 -3 24 7 29 -9 41
-34 27 -11 -6 -22 -8 -25 -5 -10 10 25 55 38 50 6 -2 18 0 26 5 18 11 29 -26
17 -59z m82 52 c0 -8 -5 -12 -10 -9 -6 4 -8 11 -5 16 9 14 15 11 15 -7z
m-3683 -61 c-2 -16 -4 -5 -4 22 0 28 2 40 4 28 2 -13 2 -35 0 -50z m2930 35
c-3 -7 -5 -2 -5 12 0 14 2 19 5 13 2 -7 2 -19 0 -25z m1500 26 c-3 -3 -12 -4
-19 -1 -8 3 -5 6 6 6 11 1 17 -2 13 -5z m-3810 -26 c-3 -8 -6 -5 -6 6 -1 11 2
17 5 13 3 -3 4 -12 1 -19z m3688 2 c3 -6 -4 -10 -17 -10 -18 0 -20 2 -8 10 19
12 18 12 25 0z m155 0 c0 -5 -4 -10 -9 -10 -5 0 -12 -8 -14 -17 -4 -14 -5 -13
-6 4 -1 16 -6 21 -16 17 -8 -4 -15 -1 -15 5 0 6 14 11 30 11 17 0 30 -4 30
-10z m57 4 c-3 -3 -12 -4 -19 -1 -8 3 -5 6 6 6 11 1 17 -2 13 -5z m-3627 -14
c0 -5 -4 -10 -10 -10 -5 0 -10 5 -10 10 0 6 5 10 10 10 6 0 10 -4 10 -10z
m2015 0 c4 -6 -5 -10 -20 -10 -15 0 -24 4 -20 10 3 6 12 10 20 10 8 0 17 -4
20 -10z m455 -31 c0 -16 -4 -29 -10 -29 -5 0 -10 16 -10 36 0 21 4 33 10 29 6
-3 10 -19 10 -36z m60 21 c0 -11 -4 -20 -10 -20 -5 0 -10 9 -10 20 0 11 5 20
10 20 6 0 10 -9 10 -20z m510 10 c0 -5 -7 -10 -16 -10 -8 0 -12 5 -9 10 3 6
10 10 16 10 5 0 9 -4 9 -10z m-3808 -55 c-2 -14 -9 -25 -14 -25 -6 0 -7 7 -4
16 3 9 6 22 6 30 0 9 4 13 9 10 4 -3 6 -17 3 -31z m2808 25 c0 -5 -2 -10 -4
-10 -3 0 -8 5 -11 10 -3 6 -1 10 4 10 6 0 11 -4 11 -10z m810 -6 c0 -2 -7 -4
-15 -4 -8 0 -15 4 -15 10 0 5 7 7 15 4 8 -4 15 -8 15 -10z m-3284 -21 c-7 -7
-26 7 -26 19 0 6 6 6 15 -2 9 -7 13 -15 11 -17z m2426 -25 c-12 -12 -22 -17
-22 -10 0 7 6 12 13 12 8 0 8 3 -2 9 -8 5 -11 16 -7 27 6 16 8 16 24 1 15 -16
15 -18 -6 -39z m1417 26 c3 -16 1 -17 -13 -5 -19 16 -21 34 -3 29 6 -3 14 -13
16 -24z m-359 6 c-20 -13 -43 -13 -35 0 3 6 16 10 28 10 18 0 19 -2 7 -10z
m207 -12 c-3 -8 -6 -5 -6 6 -1 11 2 17 5 13 3 -3 4 -12 1 -19z m83 2 c-9 -6
-8 -9 6 -13 12 -3 13 -5 4 -6 -8 0 -22 4 -30 9 -13 9 -13 11 0 19 8 5 18 7 23
4 5 -3 4 -9 -3 -13z m204 -24 c-8 -33 -34 -35 -34 -1 0 16 6 25 16 25 9 0 12
5 8 13 -5 9 -4 9 5 1 7 -7 9 -22 5 -38z m-4388 14 c0 -12 -4 -16 -9 -11 -5 5
-6 14 -3 20 10 15 12 14 12 -9z m2774 10 c0 -5 -5 -10 -11 -10 -5 0 -7 5 -4
10 3 6 8 10 11 10 2 0 4 -4 4 -10z m-2823 -47 c-3 -10 -5 -2 -5 17 0 19 2 27
5 18 2 -10 2 -26 0 -35z m3453 11 c0 -8 -4 -14 -10 -14 -5 0 -10 4 -10 9 0 4
-8 8 -17 8 -53 0 -64 7 -23 12 51 8 60 5 60 -15z m493 19 c-7 -2 -19 -2 -25 0
-7 3 -2 5 12 5 14 0 19 -2 13 -5z m-373 -23 c0 -4 10 -11 23 -15 21 -7 21 -7
2 -12 -10 -3 -21 0 -23 6 -2 6 -15 11 -28 11 -14 0 -22 -4 -19 -10 4 -6 -6
-10 -22 -9 -25 0 -26 1 -8 9 18 8 17 9 -7 9 -44 1 -32 20 15 23 47 3 67 0 67
-12z m908 3 c-2 -9 -8 -18 -15 -20 -7 -3 -9 3 -6 16 6 25 26 28 21 4z m-1620
-28 c-3 -3 -9 2 -12 12 -6 14 -5 15 5 6 7 -7 10 -15 7 -18z m1297 15 c3 -5 1
-10 -4 -10 -6 0 -11 5 -11 10 0 6 2 10 4 10 3 0 8 -4 11 -10z m-515 -14 c0 -7
9 -16 20 -19 12 -3 20 -14 20 -26 0 -12 4 -21 10 -21 7 0 50 -74 50 -87 0 -2
-9 -3 -20 -3 -13 0 -20 7 -20 20 0 22 -20 26 -37 9 -21 -21 -43 -2 -43 36 0
28 4 35 20 35 24 0 22 20 -2 38 -20 14 -24 32 -8 32 6 0 10 -6 10 -14z m410 5
c27 -6 51 -18 63 -33 10 -12 27 -33 38 -46 20 -23 39 -64 39 -83 0 -20 -30 -8
-31 14 -1 16 -2 18 -6 5 -2 -10 -9 -18 -14 -18 -5 0 -8 3 -6 8 3 10 -6 12 -69
12 -46 0 -55 -3 -50 -15 3 -9 0 -15 -10 -15 -8 0 -12 5 -9 10 3 6 -1 10 -9 10
-26 0 -31 -4 -30 -22 2 -24 -12 -23 -19 2 -4 16 -11 19 -36 14 -31 -6 -36 -1
-32 34 1 6 -3 12 -9 12 -5 0 -10 10 -11 23 0 18 -2 19 -7 5 -10 -24 -33 -8
-26 18 3 11 24 30 47 42 60 31 111 37 187 23z m-4490 -21 c0 -5 -4 -10 -10
-10 -5 0 -10 5 -10 10 0 6 5 10 10 10 6 0 10 -4 10 -10z m4700 -4 c0 -11 -19
-15 -25 -6 -3 5 1 10 9 10 9 0 16 -2 16 -4z m-719 -41 c34 -2 63 -6 64 -7 2
-2 1 -15 -2 -30 -6 -31 -41 -48 -54 -27 -5 9 -9 9 -9 3 0 -7 -9 -14 -20 -17
-13 -3 -21 1 -26 15 -3 11 -12 17 -20 14 -7 -3 -13 0 -11 6 1 7 -7 14 -17 16
-16 3 -18 0 -13 -27 4 -20 3 -30 -3 -26 -6 3 -10 17 -10 30 0 13 -4 27 -10 30
-5 3 -10 11 -10 17 0 6 3 9 6 6 3 -3 17 -3 32 2 15 4 30 5 34 3 4 -2 35 -6 69
-8z m254 5 c3 -5 1 -10 -4 -10 -6 0 -11 5 -11 10 0 6 2 10 4 10 3 0 8 -4 11
-10z m26 -49 l24 -20 -20 -20 c-13 -14 -27 -19 -42 -15 -19 5 -22 11 -17 33
12 48 19 51 55 22z m-3581 -26 c0 -24 -5 -35 -15 -35 -15 0 -20 26 -9 54 11
28 24 17 24 -19z m255 -15 c3 -5 1 -10 -4 -10 -6 0 -11 5 -11 10 0 6 2 10 4
10 3 0 8 -4 11 -10z m-59 -37 c-10 -10 -19 5 -10 18 6 11 8 11 12 0 2 -7 1
-15 -2 -18z m3652 20 c-10 -2 -28 -2 -40 0 -13 2 -5 4 17 4 22 1 32 -1 23 -4z
m-3618 -13 c0 -5 -2 -10 -4 -10 -3 0 -8 5 -11 10 -3 6 -1 10 4 10 6 0 11 -4
11 -10z m3196 -17 c-10 -10 -19 5 -10 18 6 11 8 11 12 0 2 -7 1 -15 -2 -18z
m329 7 c3 -5 -1 -10 -10 -10 -9 0 -13 5 -10 10 3 6 8 10 10 10 2 0 7 -4 10
-10z m-85 -10 c0 -5 -4 -10 -10 -10 -5 0 -10 5 -10 10 0 6 5 10 10 10 6 0 10
-4 10 -10z m290 -20 c0 -5 -5 -10 -11 -10 -5 0 -7 5 -4 10 3 6 8 10 11 10 2 0
4 -4 4 -10z m-3810 -15 c0 -17 -28 -20 -50 -4 -12 8 -9 9 13 5 15 -4 27 -2 27
4 0 5 2 10 5 10 3 0 5 -7 5 -15z m110 8 c-1 -20 -18 -33 -35 -27 -17 7 -17 8
1 21 20 14 34 17 34 6z m3640 -43 c0 -5 -12 -10 -26 -10 -14 0 -23 4 -19 10 3
6 15 10 26 10 10 0 19 -4 19 -10z m-3755 -20 c-3 -5 -13 -10 -21 -10 -8 0 -14
5 -14 10 0 6 9 10 21 10 11 0 17 -4 14 -10z m-58 -16 c-3 -3 -12 -4 -19 -1 -8
3 -5 6 6 6 11 1 17 -2 13 -5z m3637 -82 c3 -20 3 -38 1 -41 -9 -8 -75 28 -81
44 -11 28 2 41 39 37 31 -3 35 -8 41 -40z m-3597 32 c-3 -3 -12 -4 -19 -1 -8
3 -5 6 6 6 11 1 17 -2 13 -5z m-240 -10 c-3 -3 -12 -4 -19 -1 -8 3 -5 6 6 6
11 1 17 -2 13 -5z m300 -10 c-3 -3 -12 -4 -19 -1 -8 3 -5 6 6 6 11 1 17 -2 13
-5z m-282 -13 c3 -5 1 -12 -5 -16 -5 -3 -10 1 -10 9 0 18 6 21 15 7z m3719
-53 c12 -39 15 -68 7 -68 -8 0 -31 52 -31 71 0 14 20 10 24 -3z m-3514 -52 c0
-6 -93 -37 -97 -32 -2 2 15 11 39 19 47 17 58 19 58 13z m3326 -53 c-11 -11
-19 6 -11 24 8 17 8 17 12 0 3 -10 2 -21 -1 -24z m68 11 c9 -3 16 -14 15 -23
0 -10 -2 -11 -6 -3 -2 6 -11 12 -19 12 -8 0 -14 5 -14 10 0 12 3 12 24 4z
m-3569 -24 c-27 -11 -63 -27 -78 -36 -16 -9 -30 -14 -33 -12 -7 8 118 68 140
68 12 -1 0 -9 -29 -20z m3635 10 c0 -5 -2 -10 -4 -10 -3 0 -8 5 -11 10 -3 6
-1 10 4 10 6 0 11 -4 11 -10z m-2995 -8 c-6 -5 -21 -13 -35 -19 -20 -8 -29 -6
-44 8 -19 19 -18 19 34 19 30 0 50 -4 45 -8z m2999 -32 c26 0 46 -18 46 -39
-1 -13 -2 -13 -11 2 -13 22 -37 22 -61 0 -15 -13 -21 -14 -31 -4 -10 10 -8 12
8 9 17 -2 20 2 18 27 0 17 1 24 4 18 2 -7 15 -13 27 -13z m-94 -57 l35 -10
-56 -13 c-55 -12 -56 -12 -85 15 l-29 27 50 -5 c28 -3 66 -9 85 -14z m-2770
-13 c0 -5 -7 -7 -15 -4 -8 4 -15 8 -15 10 0 2 7 4 15 4 8 0 15 -4 15 -10z
m-705 -88 c-3 -3 -11 0 -18 7 -9 10 -8 11 6 5 10 -3 15 -9 12 -12z m175 -67
c0 -8 -2 -15 -4 -15 -2 0 -6 7 -10 15 -3 8 -1 15 4 15 6 0 10 -7 10 -15z
m-170 -14 c0 -5 -3 -17 -6 -26 -5 -12 -9 -14 -14 -4 -5 7 -6 18 -3 26 6 15 23
18 23 4z m118 -9 c6 -18 -15 -14 -22 4 -4 10 -1 14 6 12 6 -2 14 -10 16 -16z
m-64 -11 c3 -5 -1 -14 -9 -21 -13 -10 -15 -9 -15 9 0 21 14 28 24 12z m4224
-44 c2 -16 11 -29 23 -32 11 -4 18 -9 16 -12 -8 -7 -77 19 -77 29 0 4 8 8 18
9 10 0 12 3 5 6 -7 2 -13 11 -13 20 0 25 25 8 28 -20z m-3811 -51 c2 -13 -1
-17 -12 -12 -8 3 -15 1 -15 -4 0 -6 -4 -10 -10 -10 -14 0 -13 46 1 73 l12 21
10 -24 c5 -14 12 -33 14 -44z m-947 18 c-9 -38 -17 -51 -26 -42 -5 6 22 78 29
78 3 0 1 -16 -3 -36z m540 26 c0 -5 -5 -10 -11 -10 -5 0 -7 5 -4 10 3 6 8 10
11 10 2 0 4 -4 4 -10z m4218 -60 c41 -25 38 -40 -15 -57 -45 -15 -69 -54 -59
-95 3 -13 -3 -5 -13 17 -36 77 -36 83 4 121 20 18 39 34 43 34 4 0 22 -9 40
-20z m-4312 -15 c-11 -8 -23 -15 -27 -15 -4 0 -6 -15 -5 -33 3 -35 3 -35 -84
-29 -24 2 -25 3 -4 15 11 6 42 27 69 45 48 32 88 45 51 17z m-101 -25 c3 -6
-1 -7 -9 -4 -18 7 -21 14 -7 14 6 0 13 -4 16 -10z m2508 -30 c-3 -12 -8 -19
-11 -16 -5 6 5 36 12 36 2 0 2 -9 -1 -20z m-2166 -6 c-3 -3 -12 -4 -19 -1 -8
3 -5 6 6 6 11 1 17 -2 13 -5z m2263 -19 c7 -9 8 -15 2 -15 -5 0 -12 7 -16 15
-3 8 -4 15 -2 15 2 0 9 -7 16 -15z m-2670 1 c0 -2 -7 -7 -16 -10 -8 -3 -12 -2
-9 4 6 10 25 14 25 6z m419 -9 c8 -11 22 -12 58 -4 27 5 76 11 111 14 62 5 63
4 52 -16 -12 -24 -25 -28 -16 -6 3 8 1 15 -4 15 -6 0 -10 -7 -10 -15 0 -9 -9
-15 -22 -15 -17 0 -19 3 -9 9 9 6 4 10 -19 13 -25 4 -37 -1 -65 -29 -18 -18
-39 -33 -46 -33 -11 0 -10 3 1 10 11 7 12 10 2 10 -7 0 -20 -7 -28 -15 -17
-17 -105 -20 -139 -5 -14 6 3 9 53 9 65 1 72 3 72 21 0 18 -7 20 -70 20 -64 0
-81 6 -63 23 12 13 130 8 142 -6z m4039 6 c-10 -2 -18 -9 -18 -14 0 -6 -5 -7
-11 -3 -14 8 8 24 31 23 11 -1 10 -3 -2 -6z m-4262 -36 c4 -4 -33 -7 -82 -7
-49 0 -96 -4 -104 -9 -8 -6 -19 -7 -24 -3 -6 3 -41 7 -78 7 -38 1 -72 5 -77
10 -7 7 58 10 174 10 101 -1 187 -4 191 -8z m-366 -24 c0 -5 -21 -9 -48 -10
-36 -1 -41 1 -22 7 33 11 70 12 70 3z m1480 -54 c0 -5 -4 -9 -10 -9 -5 0 -10
7 -10 16 0 8 5 12 10 9 6 -3 10 -10 10 -16z m1925 0 c-5 -15 -4 -19 4 -15 6 4
11 0 11 -8 0 -18 -16 -21 -25 -6 -7 11 3 50 11 50 3 0 2 -10 -1 -21z m165 6
c0 -8 5 -15 11 -15 6 0 9 6 6 14 -5 12 6 14 52 13 43 -1 57 -5 54 -14 -3 -7 0
-13 6 -13 6 0 11 5 11 11 0 6 9 9 20 6 11 -3 20 -1 20 4 0 5 36 9 80 9 l80 0
0 -35 c0 -34 -12 -46 -25 -25 -11 18 -27 11 -22 -10 3 -10 0 -21 -7 -24 -6 -2
-1 -5 12 -5 13 -1 21 2 18 7 -2 4 7 12 20 19 15 7 24 7 24 1 0 -6 8 -7 18 -3
12 4 14 3 6 -5 -6 -6 -20 -12 -32 -13 -11 0 -23 -10 -26 -20 -4 -15 -11 -18
-35 -15 -25 4 -28 2 -19 -9 6 -7 8 -16 4 -20 -3 -4 -24 11 -46 32 -64 62 -55
35 11 -31 l59 -61 -20 -26 c-30 -38 -120 -62 -120 -32 0 8 -8 15 -17 15 -16 1
-16 2 2 16 19 15 19 15 -5 10 -22 -5 -33 5 -95 83 -38 50 -73 87 -78 84 -6 -4
-7 5 -3 20 3 14 2 29 -4 32 -5 3 -10 -3 -10 -14 0 -18 -6 -20 -40 -18 -44 3
-73 23 -53 35 7 4 42 9 78 10 53 2 65 0 65 -13z m600 -6 c0 -15 4 -19 16 -15
13 5 15 1 10 -19 -4 -14 -3 -24 1 -23 13 4 67 -41 59 -49 -3 -4 -29 -2 -57 3
l-50 11 6 -39 c9 -49 -1 -49 -21 2 -15 37 -37 53 -74 54 -28 2 -22 34 9 49 17
9 31 11 31 6 0 -5 -6 -9 -12 -10 -7 0 -4 -4 7 -9 13 -6 15 -9 5 -9 -13 -1 -13
-2 0 -11 18 -11 40 -14 25 -2 -13 8 -16 62 -4 62 13 0 31 -39 23 -52 -4 -7 -3
-8 4 -4 7 4 12 3 12 -3 0 -5 -6 -12 -12 -14 -8 -4 -7 -6 3 -6 23 -1 31 25 14
43 -9 8 -12 22 -8 32 5 13 3 15 -7 9 -9 -5 -11 -4 -6 3 12 19 26 14 26 -9z
m-2590 1 c0 -5 -4 -10 -10 -10 -5 0 -10 5 -10 10 0 6 5 10 10 10 6 0 10 -4 10
-10z m1771 -27 c-9 -16 -10 -14 -11 12 0 21 3 26 11 18 8 -8 8 -16 0 -30z m26
-10 c-3 -10 -5 -2 -5 17 0 19 2 27 5 18 2 -10 2 -26 0 -35z m-3277 27 c0 -5
-4 -10 -10 -10 -5 0 -10 5 -10 10 0 6 5 10 10 10 6 0 10 -4 10 -10z m750 -10
c-24 -15 -36 -11 -14 4 10 8 21 12 24 10 2 -3 -2 -9 -10 -14z m505 10 c-3 -5
-12 -10 -18 -10 -7 0 -6 4 3 10 19 12 23 12 15 0z m748 -11 c-4 -14 0 -26 11
-34 15 -12 14 -13 -8 -11 -21 1 -24 5 -19 26 3 14 8 28 10 33 8 14 11 7 6 -14z
m-123 7 c0 -2 -7 -7 -16 -10 -8 -3 -12 -2 -9 4 6 10 25 14 25 6z m35 -5 c3 -5
1 -12 -5 -16 -5 -3 -10 1 -10 9 0 18 6 21 15 7z m715 -1 c0 -5 -5 -10 -11 -10
-5 0 -7 5 -4 10 3 6 8 10 11 10 2 0 4 -4 4 -10z m110 0 c0 -5 -2 -10 -4 -10
-3 0 -8 5 -11 10 -3 6 -1 10 4 10 6 0 11 -4 11 -10z m-693 -6 c-3 -3 -12 -4
-19 -1 -8 3 -5 6 6 6 11 1 17 -2 13 -5z m443 -29 c0 -8 -4 -15 -10 -15 -5 0
-7 7 -4 15 4 8 8 15 10 15 2 0 4 -7 4 -15z m867 9 c-3 -3 -12 -4 -19 -1 -8 3
-5 6 6 6 11 1 17 -2 13 -5z m-207 -15 c0 -11 -57 -12 -63 -1 -3 4 10 8 29 9
19 1 34 -3 34 -8z m1248 -69 c-14 -8 -15 -16 -7 -46 16 -54 5 -64 -20 -16 -12
23 -27 42 -34 43 -6 0 4 7 23 14 41 16 62 18 38 5z m192 -5 c0 -14 -31 -65
-40 -65 -12 0 -30 33 -30 54 0 12 10 16 35 16 19 0 35 -2 35 -5z m-820 -15 c0
-5 -7 -10 -16 -10 -8 0 -12 5 -9 10 3 6 10 10 16 10 5 0 9 -4 9 -10z m60 -74
c0 -7 3 -26 6 -42 5 -27 3 -29 -30 -31 -20 -2 -36 0 -36 3 0 4 10 24 22 45 22
40 38 50 38 25z m-116 -168 c-3 -4 0 -8 5 -8 6 0 11 -4 11 -10 0 -6 -10 -5
-25 2 -14 6 -25 20 -25 30 0 15 3 16 19 6 11 -7 17 -16 15 -20z m501 -28 c3
-5 1 -10 -4 -10 -6 0 -11 5 -11 10 0 6 2 10 4 10 3 0 8 -4 11 -10z m365 0 c0
-5 -7 -10 -15 -10 -8 0 -15 5 -15 10 0 6 7 10 15 10 8 0 15 -4 15 -10z m-56
-25 c-7 -17 -39 -20 -49 -6 -3 5 7 12 22 14 16 2 29 5 30 6 1 0 0 -6 -3 -14z"/>
<path d="M4951 2394 c0 -11 3 -14 6 -6 3 7 2 16 -1 19 -3 4 -6 -2 -5 -13z"/>
<path d="M1822 2306 c7 -8 15 -12 17 -11 5 6 -10 25 -20 25 -5 0 -4 -6 3 -14z"/>
<path d="M1968 2293 c6 -2 18 -2 25 0 6 3 1 5 -13 5 -14 0 -19 -2 -12 -5z"/>
<path d="M3725 2290 c-3 -5 3 -10 14 -10 11 0 23 5 26 10 3 6 -3 10 -14 10
-11 0 -23 -4 -26 -10z"/>
<path d="M3665 2210 c-4 -6 3 -10 14 -10 25 0 27 6 6 13 -8 4 -17 2 -20 -3z"/>
<path d="M3720 2206 c0 -8 51 -13 56 -5 3 5 -9 9 -25 9 -17 0 -31 -2 -31 -4z"/>
<path d="M932 2310 c0 -19 2 -27 5 -17 2 9 2 25 0 35 -3 9 -5 1 -5 -18z"/>
<path d="M4198 2093 c6 -2 18 -2 25 0 6 3 1 5 -13 5 -14 0 -19 -2 -12 -5z"/>
<path d="M4397 2109 c-9 -34 4 -36 228 -30 l70 2 -28 24 c-27 24 -35 25 -146
25 -111 0 -119 -1 -124 -21z"/>
<path d="M4055 2100 c-3 -5 -1 -10 4 -10 6 0 11 5 11 10 0 6 -2 10 -4 10 -3 0
-8 -4 -11 -10z"/>
<path d="M4330 2066 c0 -2 7 -6 15 -10 8 -3 15 -1 15 4 0 6 -7 10 -15 10 -8 0
-15 -2 -15 -4z"/>
<path d="M689 1173 c-13 -16 -12 -17 4 -4 9 7 17 15 17 17 0 8 -8 3 -21 -13z"/>
<path d="M3985 990 c-3 -5 -1 -10 4 -10 6 0 11 5 11 10 0 6 -2 10 -4 10 -3 0
-8 -4 -11 -10z"/>
<path d="M4110 974 l-35 -14 35 6 c36 6 46 11 39 18 -2 2 -20 -3 -39 -10z"/>
<path d="M4200 972 c0 -5 9 -17 19 -26 19 -17 20 -17 30 2 8 16 7 21 -5 26
-22 9 -44 7 -44 -2z"/>
<path d="M4023 953 c-28 -5 -29 -15 -3 -38 11 -10 20 -13 20 -7 0 6 -5 14 -12
18 -8 5 -2 12 17 20 30 13 21 15 -22 7z"/>
<path d="M4188 793 c-16 -2 -28 -11 -28 -19 0 -8 2 -14 5 -14 12 0 75 29 75
34 0 6 -5 6 -52 -1z"/>
<path d="M1071 4014 c0 -11 3 -14 6 -6 3 7 2 16 -1 19 -3 4 -6 -2 -5 -13z"/>
<path d="M1025 3988 c-4 -13 -8 -34 -7 -48 0 -54 5 -52 13 4 9 63 7 82 -6 44z"/>
<path d="M294 3905 c0 -55 1 -76 3 -47 2 29 2 74 0 100 -2 26 -3 2 -3 -53z"/>
<path d="M1064 3973 c-11 -20 -7 -53 7 -53 5 0 9 16 9 35 0 40 -1 42 -16 18z"/>
<path d="M1450 3970 c0 -5 9 -10 20 -10 11 0 20 5 20 10 0 6 -9 10 -20 10 -11
0 -20 -4 -20 -10z"/>
<path d="M978 3943 c7 -3 16 -2 19 1 4 3 -2 6 -13 5 -11 0 -14 -3 -6 -6z"/>
<path d="M1475 3930 c3 -5 8 -10 11 -10 2 0 4 5 4 10 0 6 -5 10 -11 10 -5 0
-7 -4 -4 -10z"/>
<path d="M981 3872 c0 -16 3 -21 6 -12 3 8 10 18 15 21 5 3 3 9 -6 12 -12 5
-16 0 -15 -21z"/>
<path d="M930 3879 c0 -5 4 -8 9 -4 5 3 12 1 16 -5 3 -5 -1 -10 -9 -10 -9 0
-16 -4 -16 -9 0 -6 9 -9 20 -8 14 1 20 8 20 24 0 16 -6 23 -20 23 -11 0 -20
-5 -20 -11z"/>
<path d="M1450 3857 c0 -20 5 -27 20 -27 11 0 20 2 20 5 0 3 -9 15 -20 27
l-20 22 0 -27z"/>
<path d="M3159 3866 c-2 -3 -18 -6 -34 -9 -16 -2 -31 -9 -33 -16 -3 -9 2 -11
16 -7 11 4 31 9 43 11 28 6 50 25 28 25 -9 0 -18 -2 -20 -4z"/>
<path d="M1400 3850 c0 -5 5 -10 10 -10 6 0 10 5 10 10 0 6 -4 10 -10 10 -5 0
-10 -4 -10 -10z"/>
<path d="M1067 3802 c-8 -22 -9 -22 -22 -5 -7 10 -17 14 -21 10 -5 -4 -2 -12
6 -18 11 -7 5 -9 -22 -7 -21 1 -40 -1 -44 -5 -4 -4 7 -7 25 -7 27 0 30 -3 23
-17 -6 -11 -6 -28 -1 -42 8 -19 14 -22 37 -16 15 4 28 8 30 10 2 1 2 29 0 61
-2 46 -5 54 -11 36z m-20 -84 c-3 -8 -6 -5 -6 6 -1 11 2 17 5 13 3 -3 4 -12 1
-19z"/>
<path d="M216 3785 c-3 -9 0 -15 10 -15 8 0 17 -7 20 -15 4 -8 10 -12 15 -9 5
3 9 0 9 -6 0 -6 5 -8 10 -5 6 4 8 10 5 15 -3 4 1 11 7 14 7 3 2 5 -12 4 -29
-3 -53 9 -45 23 4 5 2 9 -3 9 -6 0 -12 -7 -16 -15z"/>
<path d="M935 3781 c-3 -5 -1 -12 5 -16 5 -3 10 1 10 9 0 18 -6 21 -15 7z"/>
<path d="M1133 3730 c0 -25 2 -35 4 -22 2 12 2 32 0 45 -2 12 -4 2 -4 -23z"/>
<path d="M3296 3734 c-4 -14 -5 -29 -2 -31 3 -3 8 7 12 21 3 15 4 29 1 32 -2
3 -8 -7 -11 -22z"/>
<path d="M942 3720 c0 -19 2 -27 5 -17 2 9 2 25 0 35 -3 9 -5 1 -5 -18z"/>
<path d="M209 3718 c-2 -36 2 -52 14 -60 7 -4 8 -8 2 -8 -5 0 -17 5 -25 10
-11 7 -17 5 -22 -8 -11 -27 -9 -42 4 -39 12 2 14 -3 16 -55 2 -20 7 -28 21
-28 17 0 19 8 19 71 0 39 4 75 11 82 16 16 14 44 -5 51 -27 10 -34 7 -35 -16z
m11 -113 c0 -14 -2 -25 -4 -25 -2 0 -6 11 -8 25 -3 14 -1 25 3 25 5 0 9 -11 9
-25z"/>
<path d="M3170 3725 c-14 -8 -33 -14 -43 -15 -10 0 -17 -6 -14 -12 6 -20 125
-13 148 8 11 10 17 20 14 23 -12 12 -81 9 -105 -4z"/>
<path d="M300 3714 c0 -8 5 -12 10 -9 6 4 8 11 5 16 -9 14 -15 11 -15 -7z"/>
<path d="M338 3660 c-16 -12 -28 -26 -28 -31 0 -6 12 -1 26 10 15 12 38 21 53
21 24 -1 23 -2 -12 -20 -68 -34 -94 -89 -67 -140 8 -15 18 -18 62 -14 28 3 67
12 86 20 19 8 37 12 40 9 6 -5 -10 -12 -70 -29 -31 -10 -42 -18 -43 -34 -1
-12 2 -19 6 -16 4 2 9 -1 11 -7 3 -10 118 -23 118 -13 0 3 -12 21 -26 40 -33
43 -20 44 25 2 33 -31 35 -31 61 -16 18 10 32 12 44 6 21 -12 46 12 46 45 0
14 7 28 16 31 15 6 14 8 -3 24 -11 9 -18 23 -16 30 3 6 0 12 -6 12 -6 0 -11
-5 -11 -11 0 -5 -4 -7 -10 -4 -5 3 -27 -4 -50 -15 -22 -11 -40 -16 -40 -10 0
5 5 10 11 10 17 0 1 18 -31 34 -17 8 -27 10 -24 4 5 -7 -2 -9 -20 -6 -25 5
-25 4 -11 -12 8 -9 15 -20 15 -23 0 -10 -44 -3 -52 8 -4 5 -11 -3 -17 -18 -10
-25 -23 -38 -20 -19 4 22 -4 20 -31 -10 -35 -38 -38 -33 -10 19 11 21 20 43
20 50 0 27 46 44 99 37 40 -5 51 -4 51 7 0 23 -41 41 -104 46 -52 4 -65 2 -88
-17z m310 -128 c0 -9 3 -25 7 -34 4 -11 3 -18 -4 -18 -9 0 -16 28 -12 53 0 4
-4 7 -10 7 -5 0 -7 5 -4 10 9 15 24 3 23 -18z m-113 -2 c-3 -5 -12 -10 -18
-10 -7 0 -6 4 3 10 19 12 23 12 15 0z"/>
<path d="M3201 3664 c0 -11 3 -14 6 -6 3 7 2 16 -1 19 -3 4 -6 -2 -5 -13z"/>
<path d="M3221 3664 c0 -11 3 -14 6 -6 3 7 2 16 -1 19 -3 4 -6 -2 -5 -13z"/>
<path d="M3248 3640 c2 -22 6 -40 8 -40 2 0 4 18 4 40 0 22 -3 40 -8 40 -4 0
-6 -18 -4 -40z"/>
<path d="M1569 3653 c-4 -42 -3 -63 3 -63 4 0 8 16 8 35 0 19 -2 35 -5 35 -3
0 -5 -3 -6 -7z"/>
<path d="M778 3623 c7 -3 16 -2 19 1 4 3 -2 6 -13 5 -11 0 -14 -3 -6 -6z"/>
<path d="M538 3603 c6 -2 18 -2 25 0 6 3 1 5 -13 5 -14 0 -19 -2 -12 -5z"/>
<path d="M595 3600 c3 -5 8 -10 11 -10 2 0 4 5 4 10 0 6 -5 10 -11 10 -5 0 -7
-4 -4 -10z"/>
<path d="M275 3589 c-11 -17 1 -21 15 -4 8 9 8 15 2 15 -6 0 -14 -5 -17 -11z"/>
<path d="M1565 3570 c3 -5 8 -10 11 -10 2 0 4 5 4 10 0 6 -5 10 -11 10 -5 0
-7 -4 -4 -10z"/>
<path d="M1575 3540 c-3 -5 -1 -10 4 -10 6 0 11 5 11 10 0 6 -2 10 -4 10 -3 0
-8 -4 -11 -10z"/>
<path d="M1265 3510 c-4 -6 -11 -8 -16 -5 -5 4 -17 1 -26 -4 -14 -8 -15 -10
-3 -11 13 0 13 -2 1 -9 -8 -5 -25 -8 -38 -6 -13 1 -22 -2 -21 -7 2 -5 39 -11
83 -13 53 -2 73 0 62 7 -24 13 -21 27 6 21 l22 -5 -24 21 c-26 23 -37 26 -46
11z"/>
<path d="M946 3493 c-6 -14 -5 -15 5 -6 7 7 10 15 7 18 -3 3 -9 -2 -12 -12z"/>
<path d="M14 3489 c-10 -4 -13 -8 -6 -8 7 -1 18 -13 24 -28 11 -28 12 -28 16
-5 2 16 8 22 19 18 8 -3 17 -6 19 -6 2 0 4 -5 4 -11 0 -5 -4 -8 -9 -5 -5 3
-12 -1 -15 -10 -4 -9 -2 -13 5 -8 6 4 15 0 20 -7 12 -21 79 -15 122 11 20 12
37 24 37 27 0 2 -4 2 -9 -2 -5 -3 -12 -1 -16 5 -3 5 -26 10 -51 10 -25 0 -55
5 -67 12 -27 14 -67 17 -93 7z"/>
<path d="M757 3483 c-5 -13 -13 -23 -18 -23 -5 0 -9 -13 -9 -30 0 -16 4 -30 8
-30 16 0 34 46 30 76 -3 27 -4 28 -11 7z"/>
<path d="M2450 3496 c0 -2 7 -6 15 -10 8 -3 15 -1 15 4 0 6 -7 10 -15 10 -8 0
-15 -2 -15 -4z"/>
<path d="M2506 3493 c7 -4 14 -17 17 -28 5 -16 5 -15 4 4 -1 14 -9 26 -17 28
-10 3 -11 2 -4 -4z"/>
<path d="M287 3444 c-3 -3 -3 -13 0 -22 4 -10 2 -13 -5 -8 -7 4 -12 3 -12 -3
0 -5 5 -13 10 -16 6 -3 10 -1 10 5 0 6 4 9 9 6 4 -3 6 6 3 19 -5 27 -6 28 -15
19z"/>
<path d="M1330 3442 c0 -5 7 -17 15 -28 14 -19 14 -19 15 2 0 12 -7 24 -15 28
-8 3 -15 2 -15 -2z"/>
<path d="M238 3433 c-10 -2 -18 -8 -18 -12 0 -4 -12 -14 -27 -21 l-28 -12 23
-9 c19 -7 28 -4 47 19 20 22 33 46 23 41 -2 -1 -11 -3 -20 -6z"/>
<path d="M1614 3320 c0 -69 1 -97 3 -62 2 34 2 90 0 125 -2 34 -3 6 -3 -63z"/>
<path d="M2450 3424 c0 -8 5 -12 10 -9 6 4 8 11 5 16 -9 14 -15 11 -15 -7z"/>
<path d="M645 3410 c-3 -5 -13 -7 -23 -4 -14 5 -14 4 -3 -4 15 -11 41 -5 41 9
0 12 -7 11 -15 -1z"/>
<path d="M1173 3413 c-16 -6 -17 -33 -3 -33 6 0 13 6 16 14 6 16 43 10 59 -10
6 -6 28 -15 50 -18 l40 -7 -30 20 c-23 16 -26 21 -12 21 10 0 15 5 12 10 -6
10 -109 13 -132 3z"/>
<path d="M317 3382 c-14 -15 -14 -19 -3 -19 8 0 17 9 19 19 3 10 4 18 3 18 -2
0 -10 -8 -19 -18z"/>
<path d="M2452 3380 c0 -14 2 -19 5 -12 2 6 2 18 0 25 -3 6 -5 1 -5 -13z"/>
<path d="M964 3376 c5 -15 4 -17 -7 -8 -10 9 -17 8 -25 0 -18 -18 -15 -32 11
-56 28 -26 77 -29 112 -6 29 19 34 39 6 24 -25 -13 -34 -13 -25 1 4 7 1 10 -7
7 -8 -3 -13 -10 -12 -16 2 -8 -6 -8 -27 0 -17 5 -30 12 -30 15 0 3 7 3 15 -1
8 -3 22 -3 30 0 21 8 19 34 -3 34 -10 0 -24 6 -31 13 -12 10 -13 9 -7 -7z"/>
<path d="M2313 3368 c5 -32 27 -35 27 -4 0 16 -6 26 -15 26 -10 0 -14 -8 -12
-22z"/>
<path d="M600 3354 l-25 -14 29 2 c16 2 31 9 34 16 5 16 -7 15 -38 -4z"/>
<path d="M3304 3270 c0 -52 1 -74 3 -47 2 26 2 68 0 95 -2 26 -3 4 -3 -48z"/>
<path d="M3328 3315 c-2 -25 0 -45 4 -45 5 0 8 20 8 45 0 25 -2 45 -4 45 -2 0
-6 -20 -8 -45z"/>
<path d="M2320 3320 c0 -5 5 -10 10 -10 6 0 10 5 10 10 0 6 -4 10 -10 10 -5 0
-10 -4 -10 -10z"/>
<path d="M2326 3291 c-4 -7 -5 -15 -2 -18 9 -9 19 4 14 18 -4 11 -6 11 -12 0z"/>
<path d="M2640 3296 c0 -3 9 -10 20 -16 11 -6 20 -8 20 -6 0 3 -9 10 -20 16
-11 6 -20 8 -20 6z"/>
<path d="M1023 3273 c-13 -2 -23 -9 -23 -14 0 -14 26 -11 40 6 7 8 11 14 9 14
-2 -1 -14 -4 -26 -6z"/>
<path d="M2640 3266 c0 -3 14 -12 30 -21 17 -9 30 -13 30 -11 0 3 -13 12 -30
21 -16 9 -30 13 -30 11z"/>
<path d="M2640 3235 c0 -6 56 -35 67 -35 4 0 -5 9 -22 20 -29 19 -45 25 -45
15z"/>
<path d="M2307 3203 c-4 -3 -7 -11 -7 -17 0 -6 5 -5 12 2 6 6 9 14 7 17 -3 3
-9 2 -12 -2z"/>
<path d="M2338 3203 c7 -3 16 -2 19 1 4 3 -2 6 -13 5 -11 0 -14 -3 -6 -6z"/>
<path d="M2673 3191 c20 -10 35 -20 32 -23 -3 -3 -7 -22 -9 -42 -3 -31 -1 -36
16 -36 15 0 18 3 11 13 -6 6 -10 27 -9 45 1 29 -3 36 -33 48 -47 20 -54 16 -8
-5z"/>
<path d="M1614 3085 c0 -60 1 -84 3 -52 2 32 2 81 0 110 -2 29 -3 3 -3 -58z"/>
<path d="M2640 3180 c0 -9 39 -25 46 -18 2 3 -7 10 -21 16 -14 6 -25 7 -25 2z"/>
<path d="M2345 3160 c-3 -5 -2 -10 4 -10 5 0 13 5 16 10 3 6 2 10 -4 10 -5 0
-13 -4 -16 -10z"/>
<path d="M2640 3149 c0 -5 9 -9 20 -9 11 0 20 2 20 4 0 2 -9 6 -20 9 -11 3
-20 1 -20 -4z"/>
<path d="M2751 3134 c0 -11 3 -14 6 -6 3 7 2 16 -1 19 -3 4 -6 -2 -5 -13z"/>
<path d="M3250 3113 c0 -18 2 -33 4 -33 9 0 13 39 5 51 -6 10 -9 4 -9 -18z"/>
<path d="M3300 3052 c0 -60 4 -92 11 -92 7 0 9 27 4 88 -4 48 -9 89 -11 91 -2
2 -4 -37 -4 -87z"/>
<path d="M2646 3115 c7 -17 20 -20 28 -6 3 5 -1 12 -10 15 -22 9 -24 8 -18 -9z"/>
<path d="M3170 3100 c0 -5 5 -10 11 -10 5 0 7 5 4 10 -3 6 -8 10 -11 10 -2 0
-4 -4 -4 -10z"/>
<path d="M2645 3082 c6 -6 21 -12 35 -15 20 -3 19 -5 -10 -7 l-35 -2 30 -7
c23 -5 30 -12 29 -29 0 -12 5 -22 12 -22 8 0 11 6 7 17 -4 11 -3 14 5 9 7 -4
12 -15 12 -24 0 -9 5 -24 10 -32 17 -24 0 41 -17 69 -8 13 -10 20 -4 17 6 -4
11 -1 11 6 0 8 -10 15 -22 15 -13 1 -34 5 -48 8 -16 4 -22 3 -15 -3z"/>
<path d="M28 3068 c8 -8 8 -17 1 -30 -8 -15 -6 -24 7 -39 10 -11 23 -18 30
-15 7 3 14 1 16 -4 2 -5 26 -12 54 -15 48 -7 52 -6 57 16 4 13 2 26 -3 29 -5
3 -8 14 -7 25 1 13 -3 19 -13 16 -45 -11 -103 -6 -122 11 -23 20 -39 25 -20 6z
m43 -66 c-7 -2 -18 1 -23 6 -8 8 -4 9 13 5 13 -4 18 -8 10 -11z m95 -21 c-4
-6 -12 -11 -18 -11 -7 0 -7 4 1 13 6 8 9 16 7 19 -1 3 1 2 7 -2 5 -5 6 -13 3
-19z"/>
<path d="M1142 3045 c3 -14 1 -25 -6 -25 -6 0 -5 -4 3 -9 11 -7 11 -9 0 -14
-8 -3 -9 -6 -3 -6 6 -1 9 -14 6 -31 -3 -21 0 -30 9 -30 11 0 11 -2 -1 -10 -13
-9 -13 -11 0 -20 20 -13 35 -7 34 14 -1 9 2 16 6 16 4 0 8 11 8 25 0 14 -6 25
-12 25 -6 0 -4 5 4 10 9 6 10 10 3 10 -6 0 -10 9 -8 20 2 12 -2 20 -10 20 -9
0 -12 6 -9 15 4 10 0 15 -11 15 -13 0 -16 -6 -13 -25z"/>
<path d="M2741 3054 c0 -11 3 -14 6 -6 3 7 2 16 -1 19 -3 4 -6 -2 -5 -13z"/>
<path d="M3171 3054 c0 -11 3 -14 6 -6 3 7 2 16 -1 19 -3 4 -6 -2 -5 -13z"/>
<path d="M3 3045 c0 -8 4 -12 9 -9 10 7 10 24 0 24 -5 0 -9 -7 -9 -15z"/>
<path d="M308 3038 c5 -5 16 -8 23 -6 8 3 3 7 -10 11 -17 4 -21 3 -13 -5z"/>
<path d="M206 3025 c7 -17 20 -20 28 -6 3 5 -1 12 -10 15 -22 9 -24 8 -18 -9z"/>
<path d="M2649 3026 c8 -10 9 -16 3 -16 -6 0 -9 -7 -6 -15 4 -8 14 -15 24 -15
11 0 22 -4 25 -10 4 -6 -6 -10 -23 -10 -19 0 -29 -5 -29 -15 0 -8 7 -15 14
-15 8 0 11 5 8 10 -4 6 6 10 23 10 25 0 29 3 25 20 -3 11 -14 20 -25 20 -14 0
-18 6 -16 22 2 16 -3 24 -17 26 -17 4 -18 2 -6 -12z"/>
<path d="M937 2986 c-3 -8 -2 -18 3 -21 13 -8 24 15 12 27 -6 6 -11 4 -15 -6z"/>
<path d="M2108 2973 c7 -3 16 -2 19 1 4 3 -2 6 -13 5 -11 0 -14 -3 -6 -6z"/>
<path d="M1610 2949 c0 -5 11 -9 25 -9 14 0 25 2 25 4 0 2 -11 6 -25 8 -14 3
-25 1 -25 -3z"/>
<path d="M2191 2931 c-9 -6 -11 -15 -6 -27 5 -11 7 -22 7 -26 -2 -10 11 -10
32 -2 23 9 20 23 -3 17 -24 -6 -36 13 -21 32 14 17 11 19 -9 6z"/>
<path d="M2698 2933 c7 -3 16 -2 19 1 4 3 -2 6 -13 5 -11 0 -14 -3 -6 -6z"/>
<path d="M4010 2930 c0 -5 7 -10 15 -10 8 0 15 -4 15 -9 0 -5 9 -11 20 -14 30
-8 24 10 -10 28 -34 18 -40 18 -40 5z"/>
<path d="M3980 2912 c0 -11 51 -34 58 -27 4 3 -4 8 -16 12 -12 3 -22 9 -22 14
0 5 -4 9 -10 9 -5 0 -10 -4 -10 -8z"/>
<path d="M2698 2903 c7 -3 16 -2 19 1 4 3 -2 6 -13 5 -11 0 -14 -3 -6 -6z"/>
<path d="M4331 2894 c0 -11 3 -14 6 -6 3 7 2 16 -1 19 -3 4 -6 -2 -5 -13z"/>
<path d="M4332 2850 c0 -14 2 -19 5 -12 2 6 2 18 0 25 -3 6 -5 1 -5 -13z"/>
<path d="M2633 2853 c9 -2 23 -2 30 0 6 3 -1 5 -18 5 -16 0 -22 -2 -12 -5z"/>
<path d="M4823 2830 c0 -9 16 -27 33 -41 41 -30 61 -68 36 -67 -43 1 -133 -12
-151 -22 -19 -10 -71 -77 -71 -91 0 -12 55 0 59 13 6 19 58 68 71 68 8 0 11
-13 8 -36 l-4 -36 60 7 c86 9 96 17 52 44 -20 13 -36 27 -36 32 0 13 12 11 34
-6 29 -22 142 -57 173 -53 28 3 28 4 31 84 l3 81 -73 12 c-40 6 -108 15 -150
19 -67 7 -76 6 -75 -8z"/>
<path d="M4586 2784 c15 -13 30 -21 33 -19 8 8 -29 42 -46 42 -12 0 -8 -7 13
-23z"/>
<path d="M4541 2784 c0 -11 3 -14 6 -6 3 7 2 16 -1 19 -3 4 -6 -2 -5 -13z"/>
<path d="M1802 2750 c0 -19 2 -27 5 -17 2 9 2 25 0 35 -3 9 -5 1 -5 -18z"/>
<path d="M1966 2762 c-2 -4 2 -13 10 -20 8 -7 14 -8 14 -2 0 16 26 12 41 -7
12 -15 12 -16 -4 -10 -10 4 -16 3 -12 -2 3 -5 -1 -12 -7 -14 -8 -4 -7 -6 4 -6
9 -1 19 3 23 9 3 5 12 7 20 4 8 -4 12 -10 9 -15 -3 -5 1 -9 9 -9 8 0 17 7 21
15 3 8 2 14 -2 14 -21 -3 -32 2 -26 13 4 6 3 8 -4 4 -6 -3 -15 1 -19 9 -9 16
-69 29 -77 17z"/>
<path d="M2070 2760 c0 -5 5 -10 10 -10 6 0 10 5 10 10 0 6 -4 10 -10 10 -5 0
-10 -4 -10 -10z"/>
<path d="M4334 2756 c-10 -8 -16 -17 -13 -20 3 -3 14 3 24 14 21 23 17 26 -11
6z"/>
<path d="M2340 2750 c0 -5 5 -10 11 -10 5 0 7 5 4 10 -3 6 -8 10 -11 10 -2 0
-4 -4 -4 -10z"/>
<path d="M4471 2726 c-7 -8 -8 -17 -3 -20 6 -3 13 1 16 10 9 23 2 28 -13 10z"/>
<path d="M1580 2701 c0 -6 5 -13 10 -16 6 -3 10 1 10 9 0 9 -4 16 -10 16 -5 0
-10 -4 -10 -9z"/>
<path d="M2127 2691 c4 -16 0 -19 -29 -19 -53 0 -68 -2 -68 -9 0 -5 25 -9 55
-10 52 -2 55 -1 55 22 0 13 -4 26 -9 29 -5 4 -7 -3 -4 -13z"/>
<path d="M3555 2700 c3 -5 14 -10 23 -10 15 0 15 2 2 10 -20 13 -33 13 -25 0z"/>
<path d="M4322 2655 c0 -16 2 -22 5 -12 2 9 2 23 0 30 -3 6 -5 -1 -5 -18z"/>
<path d="M4546 2665 c4 -8 11 -15 16 -15 6 0 5 6 -2 15 -7 8 -14 15 -16 15 -2
0 -1 -7 2 -15z"/>
<path d="M4170 2625 c6 -8 9 -18 6 -23 -3 -6 1 -15 8 -21 10 -8 16 -9 21 -1 3
5 1 10 -5 10 -6 0 -8 5 -5 10 8 12 -12 40 -27 40 -6 0 -5 -6 2 -15z"/>
<path d="M4505 2610 c-23 -25 -19 -28 28 -22 28 3 37 8 35 21 -5 24 -41 25
-63 1z"/>
<path d="M2426 2578 c-10 -21 0 -38 22 -38 11 0 13 3 6 8 -7 4 -14 16 -16 27
-4 18 -6 18 -12 3z"/>
<path d="M3690 2534 c0 -8 5 -12 10 -9 6 4 8 11 5 16 -9 14 -15 11 -15 -7z"/>
<path d="M2350 2501 c0 -6 4 -11 10 -11 5 0 12 -16 16 -35 3 -19 10 -35 14
-35 5 0 17 -3 27 -6 13 -5 12 -2 -4 10 -21 16 -34 44 -15 32 5 -3 9 1 9 8 0 8
-13 21 -29 30 -16 10 -28 13 -28 7z"/>
<path d="M2349 2468 c-8 -24 -7 -58 1 -58 5 0 10 14 10 30 0 17 -2 30 -5 30
-3 0 -5 -1 -6 -2z"/>
<path d="M3230 2330 c0 -5 5 -10 11 -10 5 0 7 5 4 10 -3 6 -8 10 -11 10 -2 0
-4 -4 -4 -10z"/>
<path d="M2352 2290 c0 -14 2 -19 5 -12 2 6 2 18 0 25 -3 6 -5 1 -5 -13z"/>
<path d="M1670 2290 c0 -5 5 -10 11 -10 5 0 7 5 4 10 -3 6 -8 10 -11 10 -2 0
-4 -4 -4 -10z"/>
<path d="M3185 2290 c-3 -5 1 -10 9 -10 9 0 16 5 16 10 0 6 -4 10 -9 10 -6 0
-13 -4 -16 -10z"/>
<path d="M2148 2273 c7 -3 16 -2 19 1 4 3 -2 6 -13 5 -11 0 -14 -3 -6 -6z"/>
<path d="M1200 2260 c0 -5 5 -10 10 -10 6 0 10 5 10 10 0 6 -4 10 -10 10 -5 0
-10 -4 -10 -10z"/>
<path d="M3170 2266 c0 -2 7 -9 15 -16 12 -10 15 -10 15 4 0 9 -7 16 -15 16
-8 0 -15 -2 -15 -4z"/>
<path d="M1492 2215 c-12 -14 -18 -25 -14 -25 5 0 17 -7 28 -16 10 -8 13 -13
7 -9 -9 4 -11 1 -7 -9 4 -12 20 -16 56 -16 43 0 49 2 38 15 -8 9 -22 12 -43 9
l-32 -6 25 15 c15 8 33 11 46 6 18 -6 22 -4 22 17 0 13 -6 24 -12 25 -44 4
-64 3 -85 -4 -21 -7 -22 -6 -11 8 21 25 5 17 -18 -10z"/>
<path d="M3178 2214 c-2 -9 -1 -38 0 -65 3 -36 7 -46 18 -42 14 5 13 39 -2 95
-3 10 2 18 13 21 15 4 14 5 -4 6 -13 1 -23 -6 -25 -15z"/>
<path d="M1458 2213 c7 -3 16 -2 19 1 4 3 -2 6 -13 5 -11 0 -14 -3 -6 -6z"/>
<path d="M1925 2190 c-52 -4 -74 -8 -63 -14 10 -4 47 -6 82 -3 44 4 66 1 69
-6 3 -9 8 -9 17 0 21 20 -19 28 -105 23z"/>
<path d="M845 2169 c-92 -13 -98 -19 -15 -13 41 2 79 9 84 14 6 6 6 10 1 9 -6
-1 -37 -5 -70 -10z"/>
<path d="M3490 2170 c-50 -11 1 -11 60 -1 41 8 42 8 10 8 -19 0 -51 -3 -70 -7z"/>
<path d="M1818 2163 c17 -7 15 -23 -3 -23 -8 0 -15 -4 -15 -10 0 -11 63 -14
73 -3 8 7 -42 43 -58 42 -5 0 -4 -3 3 -6z"/>
<path d="M2550 2148 c0 -19 2 -20 10 -8 13 19 13 30 0 30 -5 0 -10 -10 -10
-22z"/>
<path d="M1884 2144 c17 -16 42 -18 51 -4 3 6 3 10 -2 11 -4 0 -20 2 -36 4
-23 3 -25 2 -13 -11z"/>
<path d="M282 2124 c-29 -14 -52 -29 -52 -34 0 -17 80 -20 117 -5 25 11 40 12
47 5 12 -12 56 -13 75 -1 21 14 -3 47 -40 55 -58 11 -95 6 -147 -20z"/>
<path d="M2026 2135 c-18 -18 -21 -35 -6 -35 6 0 10 5 10 11 0 8 4 8 14 0 20
-17 33 7 14 26 -13 13 -17 12 -32 -2z"/>
<path d="M3019 2143 c-1 -5 -1 -12 0 -16 1 -4 -3 -16 -7 -25 -5 -9 -12 -30
-16 -47 -7 -29 -7 -29 8 -10 15 19 16 19 6 -7 -5 -16 -6 -38 -1 -50 l8 -23 7
23 c8 24 21 29 30 10 3 -7 3 3 0 22 -4 25 -2 31 5 20 5 -8 13 -11 16 -8 12 11
-5 28 -28 28 -16 0 -19 3 -8 9 7 5 10 14 6 21 -6 9 -9 9 -16 -1 -6 -10 -9 -10
-9 -2 0 6 5 15 10 18 6 3 10 15 10 26 0 18 -19 28 -21 12z"/>
<path d="M3120 2114 l-35 -35 33 12 c33 11 47 29 40 48 -1 5 -19 -6 -38 -25z"/>
<path d="M1655 2131 c-22 -3 -40 -11 -40 -18 0 -18 -6 -20 -67 -27 -56 -7 -58
-7 -59 16 -1 19 -3 18 -11 -9 -10 -29 -24 -39 -51 -34 -5 1 -6 -3 -3 -8 3 -5
47 -7 101 -4 60 3 95 1 95 -5 0 -6 17 -9 38 -8 66 5 40 18 -48 22 -46 3 -86 7
-89 10 -2 2 48 4 112 4 73 0 117 4 117 10 0 6 -15 9 -33 7 -18 -2 -42 0 -52 4
-15 6 -10 8 19 8 30 1 37 4 32 17 -3 9 -6 18 -6 20 0 2 -3 3 -7 3 -5 -1 -26
-5 -48 -8z"/>
<path d="M1155 2120 c4 -6 11 -8 16 -5 14 9 11 15 -7 15 -8 0 -12 -5 -9 -10z"/>
<path d="M1213 2119 c14 -8 22 -8 30 0 8 8 3 11 -18 11 -26 -1 -28 -2 -12 -11z"/>
<path d="M204 2105 c-16 -12 -16 -14 -3 -15 9 0 22 7 29 15 16 19 0 19 -26 0z"/>
<path d="M813 2113 c9 -2 25 -2 35 0 9 3 1 5 -18 5 -19 0 -27 -2 -17 -5z"/>
<path d="M2531 2098 c-5 -13 -5 -27 0 -32 5 -6 9 -20 9 -32 0 -12 7 -24 15
-28 8 -3 15 -1 15 3 0 5 -6 11 -12 14 -9 3 -6 14 11 37 23 32 23 34 6 47 -26
18 -34 16 -44 -9z"/>
<path d="M1371 2103 c-1 -6 -8 -19 -17 -28 -13 -13 -30 -15 -99 -9 -104 8
-152 0 -160 -27 -5 -15 -10 -17 -20 -9 -11 9 -13 1 -13 -42 -1 -29 -2 -71 -4
-92 -3 -42 6 -48 74 -49 28 -1 29 -17 1 -17 -9 0 -14 -3 -10 -6 3 -3 33 4 66
17 96 34 82 16 -19 -25 -49 -21 -92 -42 -95 -47 -3 -5 31 8 77 27 46 20 108
47 138 59 39 17 49 24 35 27 -20 5 -20 5 -1 13 13 6 21 4 24 -3 3 -9 10 -8 25
3 27 19 48 19 41 1 -3 -7 7 -23 23 -36 l28 -22 3 63 c2 45 6 59 13 49 6 -10
11 -12 17 -4 4 6 23 16 42 23 19 6 51 20 70 31 l35 19 -70 2 c-92 3 -163 1
-199 -6 l-29 -5 23 20 c20 17 22 24 12 52 -5 18 -10 28 -11 21z m-61 -63 c0
-5 -9 -10 -19 -10 -11 0 -26 -3 -35 -6 -9 -3 -16 -1 -16 4 0 9 20 17 58 21 6
0 12 -3 12 -9z m25 -35 c-5 -2 -48 -11 -95 -19 -47 -9 -95 -18 -107 -22 -14
-4 -23 -2 -23 4 0 6 10 13 23 15 16 3 14 5 -10 6 -17 0 -34 4 -36 9 -3 4 54 8
127 9 72 1 127 0 121 -2z m140 -5 c3 -5 3 -15 -1 -21 -5 -8 -10 -6 -16 5 -11
19 -37 21 -44 2 -10 -25 -141 -53 -141 -29 0 14 56 33 100 33 15 0 27 5 27 10
0 6 15 10 34 10 19 0 38 -4 41 -10z m-270 -50 c4 -6 -7 -10 -27 -9 -27 0 -30
2 -13 9 27 12 33 12 40 0z"/>
<path d="M2387 2093 c-10 -9 -9 -23 2 -23 5 0 11 7 15 15 5 15 -5 20 -17 8z"/>
<path d="M3460 2079 c0 -11 -4 -18 -8 -15 -13 8 -37 -43 -26 -53 16 -16 64
-24 64 -11 0 6 4 9 8 6 4 -2 13 -1 20 3 9 5 6 13 -8 29 -12 12 -16 22 -10 22
5 0 2 9 -7 20 -22 26 -33 25 -33 -1z"/>
<path d="M1178 2083 c7 -3 16 -2 19 1 4 3 -2 6 -13 5 -11 0 -14 -3 -6 -6z"/>
<path d="M3386 2073 c-6 -14 -5 -15 5 -6 7 7 10 15 7 18 -3 3 -9 -2 -12 -12z"/>
<path d="M3708 2083 c7 -3 16 -2 19 1 4 3 -2 6 -13 5 -11 0 -14 -3 -6 -6z"/>
<path d="M3350 2056 c0 -8 -7 -22 -16 -30 -14 -15 -13 -16 10 -16 21 0 26 5
26 24 0 14 -4 28 -10 31 -5 3 -10 -1 -10 -9z"/>
<path d="M2378 2043 c-10 -2 -18 -8 -18 -13 0 -12 33 -5 38 8 2 7 2 11 0 11
-1 -1 -11 -3 -20 -6z"/>
<path d="M2857 2043 c-10 -9 -9 -23 2 -23 5 0 11 7 15 15 5 15 -5 20 -17 8z"/>
<path d="M1 1992 l1 -47 13 30 c18 39 18 52 0 59 -12 4 -15 -4 -14 -42z"/>
<path d="M227 2033 c-30 -3 -37 -8 -33 -19 3 -9 6 -17 6 -19 0 -2 16 -1 35 2
28 5 35 2 35 -11 0 -19 38 -36 81 -36 25 0 29 4 29 28 0 23 -7 32 -35 45 -35
17 -43 17 -118 10z"/>
<path d="M73 2008 c-5 -7 -14 -25 -21 -40 l-12 -28 75 0 74 0 -9 30 c-5 16
-11 34 -15 40 -9 14 -81 13 -92 -2z"/>
<path d="M1788 1996 c-10 -7 -22 -25 -27 -39 -9 -23 -7 -29 14 -43 20 -13 28
-14 40 -4 10 8 15 9 15 2 0 -6 7 -9 15 -6 8 4 15 10 15 16 0 5 -7 16 -15 24
-13 14 -15 14 -15 -1 0 -27 -17 -8 -22 25 -2 16 0 32 6 34 6 3 7 5 1 5 -5 0
-18 -5 -27 -13z"/>
<path d="M3617 1992 c-22 -24 -21 -34 3 -49 19 -13 37 -2 26 16 -4 5 -1 11 6
13 13 5 4 38 -10 38 -5 0 -16 -8 -25 -18z"/>
<path d="M3543 1971 c3 -16 4 -45 0 -64 -4 -27 -9 -34 -22 -30 -14 5 -14 4 -1
-10 19 -20 74 -12 66 10 -4 9 -1 13 6 11 7 -3 16 -19 20 -36 8 -28 13 -32 44
-32 34 0 35 -1 29 -28 -5 -24 -2 -30 20 -40 14 -7 55 -12 90 -12 37 0 65 -4
65 -10 0 -13 49 -13 90 2 28 9 31 13 17 22 -10 8 -15 25 -13 50 1 28 -4 42
-18 52 -12 8 -19 24 -18 44 0 16 -4 30 -9 30 -5 0 -9 -4 -9 -10 0 -17 -18 -11
-40 12 -24 27 -33 19 -36 -31 -1 -21 -9 -50 -18 -63 -9 -14 -14 -33 -10 -42 8
-22 -9 -20 -29 2 -19 21 -22 42 -7 42 6 0 10 -5 10 -12 0 -9 3 -9 11 -1 14 14
1 36 -17 29 -8 -3 -14 0 -15 7 0 7 -2 23 -3 35 -2 13 3 26 11 29 18 7 -14 32
-41 33 -15 0 -17 -5 -12 -30 6 -33 -4 -38 -27 -16 -16 16 -55 18 -74 3 -9 -6
-13 -6 -13 2 0 6 5 11 12 11 9 0 9 3 0 12 -7 7 -12 20 -12 29 0 16 -19 29 -42
29 -6 0 -8 -12 -5 -29z m147 -80 c0 -11 -31 -51 -39 -51 -4 0 -3 15 3 34 6 21
15 32 23 29 7 -3 13 -8 13 -12z m150 -64 c0 -7 -7 -22 -16 -33 -14 -17 -15
-17 -10 -1 3 10 6 25 6 33 0 8 5 14 10 14 6 0 10 -6 10 -13z"/>
<path d="M3400 1976 c0 -8 5 -18 11 -22 8 -5 6 -10 -5 -16 -12 -7 -14 -14 -6
-28 11 -20 4 -50 -11 -50 -5 0 -9 12 -9 26 0 28 -24 59 -40 49 -5 -3 -9 -22
-7 -41 1 -24 7 -34 19 -34 9 0 20 -5 24 -12 4 -6 3 -8 -4 -4 -6 3 -13 2 -17
-3 -3 -5 15 -13 40 -16 33 -6 51 -3 70 9 13 9 28 16 32 16 4 0 1 -5 -7 -10
-12 -8 -11 -10 8 -10 29 0 28 3 -11 42 -20 20 -40 32 -52 30 -16 -3 -18 -1 -7
9 6 7 12 21 12 30 0 10 -6 20 -12 22 -10 4 -10 6 0 6 20 2 13 21 -8 21 -11 0
-20 -6 -20 -14z m63 -127 c-6 -6 -17 -8 -24 -3 -9 5 -8 9 7 14 23 9 31 3 17
-11z"/>
<path d="M420 1967 c0 -4 -4 -6 -9 -2 -5 3 -13 0 -16 -6 -5 -7 4 -9 26 -7 35
3 54 28 20 25 -12 -1 -21 -5 -21 -10z"/>
<path d="M2400 1960 c0 -5 12 -10 28 -9 24 0 25 1 7 9 -27 12 -35 12 -35 0z"/>
<path d="M2256 1934 c1 -15 8 -31 15 -35 20 -12 24 -2 8 18 -11 13 -11 15 -1
9 10 -6 13 -3 10 10 -2 10 -10 20 -19 22 -12 2 -16 -4 -13 -24z"/>
<path d="M2376 1943 c-6 -7 -36 -70 -36 -78 0 -1 6 -2 13 -3 6 0 22 -4 35 -8
22 -6 22 -5 16 37 -7 48 -16 64 -28 52z"/>
<path d="M1688 1923 c7 -3 16 -2 19 1 4 3 -2 6 -13 5 -11 0 -14 -3 -6 -6z"/>
<path d="M7 1904 c-15 -15 -5 -19 34 -16 22 2 38 6 36 9 -9 8 -63 14 -70 7z"/>
<path d="M1602 1897 c-7 -8 -23 -43 -37 -80 -23 -61 -23 -67 -8 -76 14 -8 15
-12 4 -25 -12 -14 -10 -16 17 -16 17 0 33 6 35 13 3 7 6 5 6 -5 1 -20 21 -25
21 -5 0 9 2 9 8 0 6 -10 22 -10 67 -3 33 5 62 10 65 10 3 0 -2 6 -11 13 -17
12 -39 75 -39 110 0 13 8 17 33 17 24 0 28 3 17 10 -9 6 -10 10 -3 10 6 0 15
-4 18 -10 3 -5 11 -10 16 -10 6 0 7 5 3 12 -5 7 -2 9 9 5 10 -4 14 -2 11 7 -3
7 -24 13 -52 14 -86 3 -92 4 -86 14 3 5 -3 4 -14 -3 -28 -17 -16 -32 18 -25
l28 5 -24 -24 c-14 -14 -29 -25 -34 -25 -15 0 -12 -36 5 -50 8 -7 12 -16 9
-22 -8 -12 -43 29 -50 59 -4 13 -3 34 0 47 7 30 -16 53 -32 33z m68 -167 c0
-13 -20 -13 -40 0 -12 8 -9 10 13 10 15 0 27 -4 27 -10z"/>
<path d="M2928 1868 c9 -9 15 -9 24 0 9 9 7 12 -12 12 -19 0 -21 -3 -12 -12z"/>
<path d="M1920 1855 c0 -9 6 -12 15 -9 8 4 15 7 15 9 0 2 -7 5 -15 9 -9 3 -15
0 -15 -9z"/>
<path d="M41 1820 c-15 -21 -31 -36 -35 -33 -3 3 -6 -64 -6 -151 l0 -157 98 7
c53 4 98 8 100 9 1 1 -4 17 -12 36 -9 22 -27 41 -51 52 -19 9 -39 25 -42 34
-4 10 -11 21 -17 25 -6 4 -7 10 -3 14 4 4 17 -1 28 -12 l22 -19 -7 30 c-4 16
-12 32 -17 36 -5 3 -7 12 -5 20 8 22 -20 52 -48 52 -26 0 -26 0 -8 29 9 16 25
38 35 49 10 10 13 19 7 19 -5 0 -23 -18 -39 -40z m-11 -110 c0 -5 -2 -10 -4
-10 -3 0 -8 5 -11 10 -3 6 -1 10 4 10 6 0 11 -4 11 -10z m50 0 c0 -5 -4 -10
-10 -10 -5 0 -10 5 -10 10 0 6 5 10 10 10 6 0 10 -4 10 -10z m-20 -28 c0 -13
-12 -22 -22 -16 -10 6 -1 24 13 24 5 0 9 -4 9 -8z"/>
<path d="M2200 1844 c0 -8 5 -12 10 -9 6 3 10 10 10 16 0 5 -4 9 -10 9 -5 0
-10 -7 -10 -16z"/>
<path d="M2250 1846 c0 -7 9 -16 20 -19 17 -4 18 -2 9 14 -11 22 -29 25 -29 5z"/>
<path d="M2416 1843 c-3 -8 2 -13 14 -13 11 0 20 6 20 13 0 8 -7 14 -15 14 -8
0 -16 -6 -19 -14z"/>
<path d="M2327 1841 c-10 -4 -18 -11 -18 -16 1 -12 51 -16 51 -4 0 6 9 7 20 4
24 -7 27 10 4 19 -19 7 -34 7 -57 -3z"/>
<path d="M1423 1825 c-3 -9 -3 -18 -1 -21 3 -3 8 4 11 16 6 23 -1 27 -10 5z"/>
<path d="M1465 1820 c-8 -13 5 -13 25 0 13 8 13 10 -2 10 -9 0 -20 -4 -23 -10z"/>
<path d="M3025 1821 c-3 -6 3 -9 14 -8 11 0 17 5 15 9 -7 11 -22 10 -29 -1z"/>
<path d="M3097 1824 c-3 -3 -3 -21 0 -39 4 -27 2 -34 -16 -40 -14 -4 -21 -15
-21 -32 0 -18 4 -24 15 -19 8 3 15 1 15 -5 0 -5 -7 -12 -15 -15 -41 -16 21
-63 64 -49 25 8 29 58 7 109 -9 22 -11 38 -4 50 5 9 7 24 4 32 -5 14 -37 19
-49 8z"/>
<path d="M1850 1805 c-7 -8 -10 -25 -6 -39 3 -14 1 -26 -5 -28 -6 -2 -12 -23
-14 -46 -1 -24 2 -39 7 -36 5 4 7 15 5 25 -4 14 3 24 22 34 36 18 59 69 41 90
-16 19 -34 19 -50 0z"/>
<path d="M3460 1811 c0 -8 79 -3 89 5 2 2 -17 4 -42 4 -26 0 -47 -4 -47 -9z"/>
<path d="M1470 1800 c-8 -5 -12 -11 -10 -14 3 -2 14 2 24 10 22 15 10 19 -14
4z"/>
<path d="M4980 1800 c0 -5 -24 -10 -52 -11 -79 -1 -133 -24 -123 -50 3 -8 29
-24 58 -37 56 -24 165 -31 222 -14 27 7 30 13 31 50 2 40 1 41 -44 56 -52 18
-92 21 -92 6z"/>
<path d="M130 1779 c0 -6 5 -19 11 -31 6 -11 8 -22 6 -25 -3 -3 -12 8 -20 24
-13 24 -16 26 -22 10 -4 -9 -2 -24 5 -32 6 -8 9 -18 6 -23 -3 -5 1 -20 9 -35
7 -14 10 -29 7 -33 -4 -4 0 -4 8 -2 8 3 14 11 12 17 -1 7 2 10 8 6 5 -3 16 9
23 27 13 31 12 34 -7 45 -12 7 -16 12 -9 13 7 0 10 7 7 15 -4 8 -11 12 -17 8
-6 -4 -8 0 -4 10 4 11 1 17 -8 17 -8 0 -15 -5 -15 -11z m50 -80 c0 -5 -4 -9
-10 -9 -5 0 -10 7 -10 16 0 8 5 12 10 9 6 -3 10 -10 10 -16z m-38 -21 c-7 -7
-12 -8 -12 -2 0 14 12 26 19 19 2 -3 -1 -11 -7 -17z"/>
<path d="M3066 1775 c4 -8 8 -15 10 -15 2 0 4 7 4 15 0 8 -4 15 -10 15 -5 0
-7 -7 -4 -15z"/>
<path d="M3597 1724 c-3 -4 -2 -14 3 -24 5 -10 7 -20 4 -23 -3 -3 4 -3 16 0
14 4 20 12 18 27 -3 21 -28 33 -41 20z"/>
<path d="M1500 1706 c-8 -6 -25 -25 -37 -42 l-22 -31 27 -13 c15 -6 24 -8 20
-4 -5 4 1 14 12 21 11 8 18 19 15 24 -4 5 -1 9 6 9 7 0 9 3 6 7 -4 3 -2 12 3
18 14 17 -11 26 -30 11z"/>
<path d="M4280 1711 c0 -5 -8 -11 -17 -13 -13 -3 -8 -7 15 -15 18 -7 30 -8 27
-3 -4 6 -1 10 4 10 6 0 11 7 11 15 0 8 -9 15 -20 15 -11 0 -20 -4 -20 -9z"/>
<path d="M1863 1662 c1 -35 -2 -53 -11 -57 -25 -9 -42 -5 -42 11 0 8 -4 12
-10 9 -6 -4 -10 7 -10 24 0 41 -25 41 -39 0 -14 -40 -14 -139 -1 -139 6 0 19
9 29 19 30 30 44 5 39 -69 -1 -33 0 -60 5 -60 4 0 7 20 7 44 0 63 11 106 26
106 11 0 14 -19 14 -80 0 -103 15 -105 16 -3 1 43 4 97 7 121 3 23 3 40 -1 38
-10 -6 -9 35 1 51 4 6 3 14 -3 18 -5 3 -10 3 -10 -2 0 -4 -4 -1 -10 7 -6 10
-8 -3 -7 -38z"/>
<path d="M1250 1696 c0 -9 30 -14 35 -6 4 6 -3 10 -14 10 -12 0 -21 -2 -21 -4z"/>
<path d="M2750 1665 c0 -12 76 -35 116 -35 23 0 46 -5 49 -11 4 -6 4 -39 0
-75 -6 -59 -8 -64 -31 -64 -18 0 -24 -5 -24 -21 0 -19 4 -21 31 -15 17 3 35 6
39 6 4 0 8 10 7 23 0 12 3 61 7 110 l8 87 -101 0 c-55 0 -101 -2 -101 -5z"/>
<path d="M5025 1660 c-4 -6 11 -10 34 -10 23 0 41 4 41 8 0 12 -68 13 -75 2z"/>
<path d="M3630 1627 c0 -19 -7 -42 -15 -50 -12 -13 -10 -14 18 -12 18 2 35 3
39 4 14 2 2 46 -19 69 l-23 25 0 -36z"/>
<path d="M795 1615 c-5 -2 -23 -6 -39 -10 -26 -5 -28 -8 -22 -43 3 -20 7 -42
8 -47 2 -16 54 -17 65 -3 19 25 23 65 8 78 -8 7 -12 16 -9 21 3 5 4 9 2 8 -2
0 -7 -2 -13 -4z"/>
<path d="M4432 1605 c-11 -13 -8 -15 23 -15 21 0 34 4 30 10 -3 5 -13 6 -22 3
-11 -4 -14 -3 -9 5 10 17 -6 14 -22 -3z"/>
<path d="M5111 1574 c0 -11 3 -14 6 -6 3 7 2 16 -1 19 -3 4 -6 -2 -5 -13z"/>
<path d="M905 1520 c3 -6 0 -10 -7 -11 -37 -2 -72 -9 -79 -16 -5 -5 0 -9 11
-9 11 0 20 4 20 8 0 4 10 4 23 0 29 -11 57 -4 57 13 0 7 -7 16 -16 19 -8 3
-12 2 -9 -4z"/>
<path d="M1976 1507 c-14 -10 -17 -23 -14 -53 3 -28 -1 -46 -14 -65 -14 -18
-18 -38 -16 -70 3 -40 0 -45 -27 -59 -20 -10 -29 -21 -27 -33 4 -24 -15 -47
-40 -47 -13 0 -17 -4 -12 -12 6 -10 5 -10 -7 -1 -18 15 -57 11 -95 -9 -16 -9
-40 -21 -54 -27 -25 -11 -25 -11 3 -6 19 4 26 2 22 -5 -4 -6 12 -10 47 -9 61
1 104 12 101 25 -1 5 17 10 40 11 23 1 61 4 84 7 36 4 41 2 38 -13 -2 -13 3
-18 18 -17 11 1 22 7 25 14 2 7 -2 10 -12 6 -9 -3 -16 -1 -16 5 0 6 11 11 24
11 14 0 27 3 29 8 5 9 -18 54 -27 53 -3 -1 -5 2 -3 7 1 4 5 6 10 5 13 -5 7 17
-6 23 -15 5 -22 78 -10 97 5 7 10 -8 13 -37 3 -30 11 -51 19 -54 21 -7 6 86
-19 120 -18 25 -19 29 -5 69 11 31 12 45 4 55 -15 18 -50 18 -73 1z m31 -189
c-3 -7 -5 -2 -5 12 0 14 2 19 5 13 2 -7 2 -19 0 -25z m-4 -31 c3 -8 1 -20 -4
-28 -6 -10 -9 -7 -9 14 0 29 5 35 13 14z m-90 -134 c-7 -2 -21 -2 -30 0 -10 3
-4 5 12 5 17 0 24 -2 18 -5z m-88 -13 c4 -6 -12 -10 -39 -10 -25 0 -46 5 -46
10 0 6 18 10 39 10 22 0 43 -4 46 -10z"/>
<path d="M500 1495 c-10 -12 -10 -15 4 -15 9 0 16 7 16 15 0 8 -2 15 -4 15 -2
0 -9 -7 -16 -15z"/>
<path d="M4411 1483 c-1 -24 14 -29 39 -13 12 8 11 10 -7 10 -12 0 -24 6 -26
13 -3 6 -6 2 -6 -10z"/>
<path d="M4235 1471 c-9 -16 25 -41 56 -41 25 0 28 4 27 25 -2 22 -7 25 -40
25 -20 0 -39 -4 -43 -9z"/>
<path d="M3238 1449 c-15 -6 -31 -22 -36 -37 -8 -23 -5 -33 13 -56 14 -18 25
-24 29 -17 4 6 20 11 36 11 18 0 34 8 44 22 14 20 14 25 -2 52 -20 34 -42 40
-84 25z"/>
<path d="M1136 1403 c-5 -13 -9 -14 -15 -5 -6 10 -10 10 -20 -2 -7 -8 -8 -17
-3 -20 5 -3 8 -18 6 -33 -3 -25 -3 -24 6 5 6 17 17 32 25 32 8 0 15 9 15 20 0
25 -6 26 -14 3z"/>
<path d="M635 1400 c-3 -6 1 -7 9 -4 18 7 21 14 7 14 -6 0 -13 -4 -16 -10z"/>
<path d="M1020 1400 c-9 -6 -10 -10 -3 -10 6 0 15 5 18 10 8 12 4 12 -15 0z"/>
<path d="M980 1375 c-11 -13 -10 -14 4 -9 9 3 16 10 16 15 0 13 -6 11 -20 -6z"/>
<path d="M3883 1372 c-35 -3 -43 -7 -43 -23 0 -16 7 -19 40 -19 26 0 38 4 36
13 -1 6 -1 9 1 5 3 -5 16 -8 29 -8 14 0 22 4 19 10 -11 18 -39 25 -82 22z"/>
<path d="M1698 1358 c-27 -6 -48 -15 -48 -20 0 -6 10 -8 23 -5 12 4 56 11 97
18 41 6 77 13 79 15 8 8 -105 2 -151 -8z"/>
<path d="M3620 1312 c0 -23 4 -42 9 -42 6 0 7 17 4 38 -8 51 -13 53 -13 4z"/>
<path d="M3651 1334 c0 -11 3 -14 6 -6 3 7 2 16 -1 19 -3 4 -6 -2 -5 -13z"/>
<path d="M2951 1318 c1 -15 17 -55 19 -48 11 35 9 60 -5 60 -8 0 -15 -6 -14
-12z"/>
<path d="M1630 1280 c0 -27 3 -30 30 -30 27 0 30 3 30 30 0 27 -3 30 -30 30
-27 0 -30 -3 -30 -30z"/>
<path d="M1345 1229 c-4 -6 -5 -12 -2 -15 2 -3 7 2 10 11 7 17 1 20 -8 4z"/>
<path d="M1465 1225 l-50 -11 60 -6 c33 -4 77 -3 97 1 20 5 39 7 40 5 2 -2 22
3 43 11 39 14 38 14 -50 12 -50 -1 -113 -7 -140 -12z"/>
<path d="M1398 1190 c-22 -13 -16 -41 11 -52 14 -5 20 -4 16 2 -3 6 -14 10
-23 11 -11 0 -12 2 -4 6 6 2 10 9 7 13 -3 5 -1 11 5 15 5 3 10 1 10 -4 0 -6 6
-11 13 -11 8 0 14 7 14 15 0 17 -24 19 -49 5z"/>
<path d="M1710 1180 c0 -5 5 -10 10 -10 6 0 10 5 10 10 0 6 -4 10 -10 10 -5 0
-10 -4 -10 -10z"/>
<path d="M1617 1161 c3 -12 9 -21 14 -21 14 0 11 16 -5 29 -12 10 -13 8 -9 -8z"/>
<path d="M1660 1160 c0 -5 12 -10 26 -10 14 0 23 4 19 10 -3 6 -15 10 -26 10
-10 0 -19 -4 -19 -10z"/>
<path d="M1340 1151 c0 -9 30 -24 36 -18 2 1 -6 8 -16 15 -11 7 -20 8 -20 3z"/>
<path d="M1955 1140 c-3 -5 -1 -10 5 -10 6 0 8 -4 5 -10 -7 -11 8 -14 18 -4 7
8 -3 34 -13 34 -5 0 -12 -4 -15 -10z"/>
<path d="M1605 1120 c4 -6 12 -10 20 -10 7 0 15 -5 17 -12 3 -9 6 -9 11 -1 4
7 -5 15 -23 22 -18 6 -28 6 -25 1z"/>
<path d="M3510 1110 c0 -5 5 -10 10 -10 6 0 10 5 10 10 0 6 -4 10 -10 10 -5 0
-10 -4 -10 -10z"/>
<path d="M1418 1103 c7 -3 16 -2 19 1 4 3 -2 6 -13 5 -11 0 -14 -3 -6 -6z"/>
<path d="M1439 829 l-24 -20 28 17 c15 9 27 18 27 20 0 8 -8 4 -31 -17z"/>
<path d="M1650 836 c0 -9 5 -16 10 -16 6 0 10 4 10 9 0 6 -4 13 -10 16 -5 3
-10 -1 -10 -9z"/>
<path d="M1928 812 c-27 -17 -28 -19 -28 -117 0 -88 -2 -103 -20 -118 -11 -9
-20 -13 -20 -9 0 4 -4 3 -8 -3 -13 -18 -48 -33 -108 -45 -32 -7 -62 -17 -65
-23 -4 -5 -14 -7 -24 -4 -14 6 -16 24 -13 145 l3 138 -30 -4 -30 -3 33 17 c49
25 31 28 -20 3 -38 -18 -55 -20 -102 -15 l-56 7 22 19 c28 24 16 26 -17 4 -14
-9 -25 -13 -25 -9 0 4 -8 1 -17 -6 -14 -12 -15 -12 -9 0 6 8 0 7 -18 -4 -26
-17 -26 -19 -26 -136 l0 -119 -27 0 c-16 0 -48 -10 -73 -22 l-45 -21 31 -8
c42 -12 65 -40 71 -88 5 -34 9 -41 28 -41 13 0 31 -3 39 -6 32 -12 -49 -65
-97 -63 -12 0 -16 3 -9 6 7 2 17 14 23 24 10 20 9 20 -20 4 l-31 -16 -1 31
c-2 44 -2 45 -21 64 -21 21 -23 30 -5 23 9 -3 13 2 12 16 -1 14 -8 21 -18 21
-9 -1 -14 2 -11 7 5 8 -26 14 -50 10 -5 -1 -16 5 -26 14 -16 15 -18 13 -24
-25 -6 -36 -9 -40 -34 -40 -16 0 -51 -11 -79 -25 -28 -13 -64 -27 -79 -31 -16
-4 -42 -20 -59 -35 -30 -29 -49 -38 -115 -57 -30 -8 -31 -10 -10 -11 25 -1 25
-1 4 -14 -12 -6 -50 -29 -83 -49 -34 -21 -75 -38 -91 -38 -19 0 -28 -4 -25
-13 3 -7 -29 -32 -78 -61 -45 -28 -84 -53 -87 -57 -3 -5 -17 -12 -30 -18 -35
-14 198 -14 276 -1 103 19 169 33 179 40 6 4 33 15 60 24 28 10 70 27 95 38
54 25 170 44 196 33 13 -5 15 -9 6 -12 -10 -4 -8 -9 7 -20 28 -19 26 -31 -6
-44 -16 -6 -36 -17 -45 -26 -9 -8 -34 -21 -55 -29 -35 -12 -26 -13 115 -14 86
0 151 4 148 9 -5 7 19 15 62 22 4 0 13 6 21 12 7 6 19 12 26 13 7 1 56 20 109
43 54 23 114 45 134 50 20 5 30 10 22 10 -10 1 -6 7 10 16 17 9 27 10 31 3 4
-6 10 -1 14 12 11 36 101 70 187 70 61 0 82 5 142 34 39 19 100 46 136 59 36
14 113 45 173 70 59 24 107 42 107 38 0 -3 5 2 11 12 5 9 14 17 19 17 6 0 43
15 83 34 40 18 84 37 97 41 14 4 44 16 68 26 42 18 43 20 28 41 -15 21 -14 23
15 35 38 16 33 37 -9 41 -18 2 -32 9 -33 15 -1 7 -5 -4 -9 -23 -6 -23 -5 -40
3 -49 9 -11 9 -13 0 -8 -7 5 -16 -1 -22 -12 -6 -11 -35 -28 -63 -39 -29 -11
-97 -41 -151 -67 -53 -26 -146 -64 -205 -85 -59 -21 -133 -47 -164 -59 -32
-12 -77 -21 -100 -21 -40 0 -41 1 -22 14 11 8 34 18 50 22 35 8 129 46 200 80
28 13 55 24 59 24 4 0 40 15 79 34 39 19 105 46 146 60 60 20 75 29 76 46 1
19 0 19 -16 5 -15 -13 -20 -14 -26 -3 -4 7 -4 10 0 6 9 -8 46 28 46 45 0 6 -8
22 -18 35 -16 21 -19 21 -40 7 -12 -9 -22 -25 -22 -37 0 -16 -5 -19 -24 -16
-15 3 -27 -2 -35 -14 -6 -10 -19 -18 -29 -18 -9 0 -41 -11 -70 -25 -93 -43
-95 -41 -89 70 4 90 4 95 -14 90 -11 -4 -19 -2 -19 3 0 5 -18 10 -39 10 -22 0
-56 5 -78 11 -21 5 -76 12 -123 15 -69 4 -90 2 -112 -12z m337 -42 c-3 -5 -16
-10 -28 -10 -18 0 -19 2 -7 10 20 13 43 13 35 0z m34 -97 c0 -33 -3 -42 -8
-29 -7 19 -8 19 -14 1 -9 -22 -20 -13 -24 20 -4 26 11 35 20 13 3 -7 6 -4 6 8
1 19 9 34 18 34 2 0 3 -21 2 -47z m301 -7 c0 -9 -30 -14 -35 -6 -4 6 3 10 14
10 12 0 21 -2 21 -4z"/>
<path d="M1 782 c-1 -26 5 -49 14 -59 10 -10 15 -31 14 -64 -2 -49 -13 -65
-22 -31 -3 9 -5 2 -6 -15 0 -18 3 -33 8 -33 16 0 48 54 45 75 -3 19 12 45 26
45 17 0 18 -40 2 -50 -15 -8 -15 -9 2 -10 16 0 18 -5 13 -36 -3 -20 -11 -42
-18 -50 -13 -16 -59 -19 -59 -4 0 6 -4 10 -10 10 -5 0 -10 -20 -10 -45 0 -25
2 -45 4 -45 2 0 33 9 68 20 36 11 79 21 97 23 40 5 62 24 42 36 -7 5 -10 14
-7 20 4 6 0 11 -11 11 -15 0 -16 2 -3 10 9 6 10 10 3 10 -6 0 -19 7 -28 17
-14 13 -18 14 -25 3 -4 -7 -6 -18 -4 -25 3 -6 -4 -23 -15 -36 -11 -13 -20 -18
-21 -11 0 6 5 12 11 12 5 0 7 5 4 10 -3 6 -1 10 4 10 6 0 11 5 11 11 0 5 -5 7
-10 4 -7 -4 -8 3 -4 20 4 15 0 44 -11 71 -9 25 -14 48 -11 51 3 3 8 -3 12 -13
16 -50 25 -65 36 -58 8 5 9 2 5 -9 -3 -10 -2 -17 3 -17 13 0 13 57 0 65 -5 3
-7 11 -4 18 11 30 -66 91 -82 66 -3 -5 6 -9 20 -9 26 0 38 -12 43 -44 2 -11 9
-26 15 -33 8 -10 8 -17 0 -25 -9 -9 -12 -7 -12 9 0 19 -39 78 -40 61 0 -5 -9
1 -20 12 -11 11 -26 17 -34 14 -9 -3 -18 5 -24 23 -10 27 -10 26 -11 -15z m64
-55 c0 -24 -18 -23 -27 3 -6 17 -4 21 10 18 9 -2 17 -11 17 -21z"/>
<path d="M1736 785 c-3 -8 -1 -15 4 -15 6 0 10 7 10 15 0 8 -2 15 -4 15 -2 0
-6 -7 -10 -15z"/>
<path d="M1741 734 c0 -11 3 -14 6 -6 3 7 2 16 -1 19 -3 4 -6 -2 -5 -13z"/>
<path d="M3515 710 c-32 -15 -34 -18 -12 -13 22 4 35 -1 56 -21 15 -15 41 -28
57 -31 16 -2 39 -7 52 -11 35 -10 26 10 -21 49 -57 46 -82 52 -132 27z"/>
<path d="M3437 696 c-23 -17 -5 -32 20 -17 11 6 13 11 5 11 -7 0 -10 5 -7 10
8 13 4 12 -18 -4z"/>
<path d="M1661 674 c0 -11 3 -14 6 -6 3 7 2 16 -1 19 -3 4 -6 -2 -5 -13z"/>
<path d="M3233 642 c-48 -43 -53 -52 -53 -90 0 -31 4 -42 15 -42 26 0 17 -37
-16 -64 -34 -29 -45 -32 -52 -13 -3 6 -6 3 -6 -8 -1 -19 -59 -65 -82 -65 -6 0
-33 -18 -59 -40 -26 -22 -56 -40 -67 -40 -22 0 -56 -37 -50 -54 6 -15 117 -50
160 -50 68 0 117 9 117 22 0 22 18 13 22 -13 5 -24 5 -24 -86 -28 -61 -2 -46
-3 44 -3 74 0 118 1 98 3 -78 8 -25 36 91 48 35 3 85 17 110 29 25 13 57 27
71 31 14 4 45 22 70 40 25 17 66 42 92 55 58 29 118 77 118 95 0 8 -9 17 -20
20 -24 8 -26 31 -4 43 9 5 12 12 7 15 -5 3 -44 -8 -86 -25 -75 -31 -77 -32
-91 -13 -8 11 -12 30 -10 41 4 17 0 23 -23 29 -15 5 -32 7 -36 6 -5 -1 -6 3
-3 8 10 15 -91 94 -122 96 -15 1 -43 5 -62 9 -32 7 -39 3 -87 -42z m297 -92
c0 -5 -5 -10 -11 -10 -5 0 -7 5 -4 10 3 6 8 10 11 10 2 0 4 -4 4 -10z m140
-70 c-8 -5 -19 -10 -25 -10 -5 0 -3 5 5 10 8 5 20 10 25 10 6 0 3 -5 -5 -10z"/>
<path d="M60 669 c0 -5 5 -7 10 -4 6 3 10 8 10 11 0 2 -4 4 -10 4 -5 0 -10 -5
-10 -11z"/>
<path d="M1765 616 c-55 -15 -105 -39 -105 -49 0 -5 16 0 35 12 19 11 35 16
35 11 0 -6 -16 -18 -35 -27 -33 -16 -46 -33 -25 -33 6 0 10 4 10 8 0 12 63 32
102 32 40 0 70 22 62 45 -7 17 -22 17 -79 1z"/>
<path d="M384 485 c-9 -14 -13 -33 -9 -44 4 -14 0 -24 -14 -33 -12 -7 -21 -18
-21 -25 0 -7 -19 -25 -42 -39 -24 -15 -55 -35 -70 -46 -19 -12 -44 -18 -80
-17 -29 0 -46 3 -38 6 8 3 17 9 20 12 3 4 28 17 55 28 43 18 50 26 53 52 4 34
3 35 -30 22 -13 -4 -40 -11 -61 -15 -31 -6 -37 -4 -31 6 4 7 -6 1 -23 -15 -17
-16 -43 -28 -61 -30 -32 -2 -32 -2 -32 -59 0 -32 2 -58 5 -58 3 0 22 7 43 16
28 13 73 17 188 18 l151 2 33 37 c18 20 43 40 56 43 26 7 33 38 12 48 -10 5
-10 7 0 12 22 10 14 61 -14 83 -36 28 -70 27 -90 -4z"/>
<path d="M1708 153 c7 -3 16 -2 19 1 4 3 -2 6 -13 5 -11 0 -14 -3 -6 -6z"/>
<path d="M2443 120 c0 -25 2 -35 4 -22 2 12 2 32 0 45 -2 12 -4 2 -4 -23z"/>
<path d="M2922 135 c0 -16 2 -22 5 -12 2 9 2 23 0 30 -3 6 -5 -1 -5 -18z"/>
<path d="M1961 134 c0 -11 3 -14 6 -6 3 7 2 16 -1 19 -3 4 -6 -2 -5 -13z"/>
<path d="M2933 60 c0 -25 2 -35 4 -22 2 12 2 32 0 45 -2 12 -4 2 -4 -23z"/>
<path d="M4700 64 c0 -5 7 -18 15 -28 8 -10 12 -23 9 -27 -3 -5 4 -9 16 -9 17
0 19 3 11 18 -12 22 -51 58 -51 46z"/>
<path d="M2432 40 c0 -14 2 -19 5 -12 2 6 2 18 0 25 -3 6 -5 1 -5 -13z"/>
</g>
</svg>
